<svg xmlns="http://www.w3.org/2000/svg" width="249" height="49" viewBox="0 0 249 49" fill="none">
  <path fill-rule="evenodd" clip-rule="evenodd" d="M18.093 8.05737C17.9286 8.39211 6.44665 31.2651 2.86483 40.4462C2.1316 38.8506 0.799225 35.3857 0.799225 35.3857C3.73649 30.6941 7.56164 24.5641 9.96034 20.7719C12.5331 16.7069 18.093 8.05844 18.093 8.05844V8.05737Z" fill="#363636"/>
  <path fill-rule="evenodd" clip-rule="evenodd" d="M0 27.3429C0 27.3429 1.09011 30.4592 1.09011 30.4635C6.02377 23.5453 16.1139 9.58386 16.5735 8.94434C16.1831 9.34217 1.99747 25.1623 0 27.3418V27.3429Z" fill="#363636"/>
  <path d="M26.9242 4.93058C27.3795 4.29962 27.891 3.71143 28.4307 3.1457C28.701 2.86337 28.9844 2.59387 29.2742 2.32865C29.563 2.06236 29.8669 1.81212 30.1805 1.57256C30.3351 1.45065 30.4984 1.33729 30.6596 1.22179C30.824 1.11057 30.9883 0.998278 31.1614 0.898821C31.3312 0.794017 31.5085 0.699906 31.6859 0.606866L31.9573 0.473187L32.2374 0.35341C32.4267 0.279619 32.6181 0.204759 32.8182 0.153426C32.9177 0.124551 33.0172 0.098885 33.121 0.0807046C33.2237 0.0625242 33.3243 0.0368578 33.4303 0.0293718C33.639 0.000497117 33.8521 -0.00485005 34.0662 0.00370542C34.1733 0.0143998 34.2803 0.0218858 34.3874 0.0368578L34.7054 0.105302H34.7108L34.7313 0.113857C34.9411 0.189787 35.1585 0.2978 35.3521 0.422923C35.5478 0.549116 35.7252 0.697768 35.8917 0.854974L36.1264 1.10308C36.201 1.18864 36.2648 1.28061 36.334 1.37044L36.4357 1.50519L36.5233 1.64742L36.6963 1.93403C36.7991 2.12974 36.8856 2.33293 36.9764 2.53292L37.1916 3.15105L37.3506 3.77987C37.3798 3.88468 37.3993 3.99055 37.4133 4.09643L37.4631 4.41512L37.5118 4.73274C37.5269 4.83861 37.5312 4.94556 37.541 5.05143L37.5918 5.68881C37.6015 5.90163 37.5961 6.11445 37.5994 6.32619C37.5972 6.53901 37.6069 6.75076 37.5961 6.96251L37.555 7.59668C37.5377 7.80736 37.5345 8.01911 37.5053 8.22872C37.4523 8.64793 37.396 9.06608 37.3344 9.48316C37.3301 9.06074 37.3312 8.64045 37.3355 8.22123C37.3387 8.01162 37.3236 7.80201 37.3182 7.5924L37.2976 6.96572C37.2911 6.75718 37.2663 6.54971 37.2511 6.34224C37.2317 6.13477 37.2208 5.9273 37.1949 5.7209L37.1095 5.1049C37.0943 5.00224 37.0846 4.89957 37.064 4.79797L36.9991 4.49533C36.9516 4.29534 36.9224 4.09001 36.8618 3.8943L36.6909 3.30612L36.4714 2.73932C36.3816 2.55965 36.293 2.37892 36.201 2.20246L36.0442 1.949L35.9653 1.82281L35.8744 1.70624C35.8128 1.62924 35.7565 1.54904 35.6917 1.47525L35.4883 1.26564C35.3456 1.1341 35.1963 1.01325 35.0341 0.910585C34.8697 0.810058 34.7086 0.722365 34.5193 0.652851L34.5453 0.661407L34.2922 0.604727C34.2057 0.591894 34.1181 0.585477 34.0316 0.574783C33.8553 0.567297 33.678 0.568366 33.4995 0.590824C33.4098 0.595102 33.3211 0.61756 33.2324 0.632532C33.1426 0.645365 33.054 0.668893 32.9664 0.69349C32.7879 0.734128 32.6127 0.795086 32.4375 0.857113L32.1769 0.958709L31.9206 1.07421C31.7519 1.15655 31.581 1.23783 31.4177 1.33301C31.0868 1.51695 30.7602 1.7148 30.4455 1.93189C30.2865 2.03777 30.1318 2.1522 29.9761 2.26449L29.5165 2.61312C29.2126 2.84947 28.9173 3.09651 28.6243 3.34782C28.3301 3.59914 28.0457 3.86115 27.7612 4.12423C27.479 4.38945 27.1978 4.65681 26.9264 4.93486L26.9242 4.93058Z" fill="#363636"/>
  <path d="M31.6221 6.4789C32.0763 5.849 32.5889 5.25975 33.1286 4.69402C33.3989 4.41168 33.6823 4.14219 33.9721 3.87697C34.2608 3.61068 34.5647 3.36043 34.8784 3.12088C35.033 2.99896 35.1963 2.8856 35.3575 2.7701C35.5218 2.65888 35.6862 2.54659 35.8593 2.44714C36.028 2.34233 36.2064 2.24822 36.3838 2.15518L36.6552 2.0215L36.9353 1.90173C37.1246 1.82793 37.316 1.75307 37.5161 1.70174C37.6156 1.67394 37.7151 1.6472 37.8189 1.63009C37.9216 1.61191 38.0222 1.58624 38.1282 1.57876C38.3369 1.55095 38.55 1.54453 38.7641 1.55309C38.8712 1.56378 38.9782 1.57127 39.0853 1.58624L39.4032 1.65469H39.4086L39.4292 1.66324C39.639 1.73917 39.8564 1.84611 40.0499 1.97231C40.2457 2.0985 40.423 2.24715 40.5896 2.40436L40.8243 2.65247C40.8989 2.73802 40.9627 2.82999 41.0319 2.91983L41.1347 3.05457L41.2223 3.19681L41.3953 3.48235C41.498 3.67805 41.5846 3.88125 41.6754 4.08123L41.8906 4.69936L42.0496 5.32819C42.0788 5.43299 42.0982 5.53887 42.1123 5.64474L42.1621 5.96343L42.2107 6.28105C42.2259 6.38693 42.2302 6.49387 42.2399 6.59975L42.2907 7.23713C42.3005 7.44994 42.2951 7.66276 42.2983 7.87451C42.2962 8.08626 42.3059 8.29907 42.2951 8.51082L42.254 9.145C42.2367 9.35567 42.2334 9.56742 42.2042 9.77703C42.1512 10.1962 42.095 10.6144 42.0334 11.0315C42.029 10.609 42.0301 10.1888 42.0344 9.76954C42.0377 9.55994 42.0225 9.35033 42.0171 9.14072L41.9966 8.51403C41.9901 8.30549 41.9652 8.09802 41.9501 7.89055C41.9306 7.68308 41.9198 7.47561 41.8938 7.26921L41.8084 6.65322C41.7933 6.55055 41.7835 6.44789 41.763 6.34629L41.6981 6.04364C41.6505 5.84366 41.6213 5.63832 41.5608 5.44262L41.3899 4.85443L41.1704 4.28763C41.0806 4.10797 40.9919 3.92723 40.8989 3.74971L40.7421 3.49625L40.6631 3.37006L40.5723 3.25349C40.5107 3.17756 40.4544 3.09628 40.3895 3.02249L40.1862 2.81288C40.0435 2.68134 39.8942 2.55943 39.732 2.45783C39.5676 2.3573 39.4065 2.26961 39.2172 2.2001L39.2432 2.20865L38.9901 2.15197C38.9036 2.13914 38.816 2.13272 38.7295 2.12203C38.5532 2.11454 38.3758 2.11561 38.1974 2.13807C38.1076 2.14235 38.019 2.16481 37.9303 2.17978C37.8405 2.19261 37.7518 2.21614 37.6642 2.24074C37.4858 2.28137 37.3106 2.34233 37.1354 2.40436L36.8748 2.50595L36.6185 2.62145C36.4497 2.7038 36.2789 2.78508 36.1145 2.88026C35.7836 3.06313 35.457 3.26204 35.1422 3.47914C34.9833 3.58501 34.8286 3.69944 34.674 3.81173L34.2144 4.1593C33.9105 4.39564 33.6152 4.64268 33.3221 4.894C33.028 5.14532 32.7436 5.40733 32.4591 5.67041C32.1769 5.93563 31.8957 6.20405 31.6242 6.48104L31.6221 6.4789Z" fill="#363636"/>
  <path fill-rule="evenodd" clip-rule="evenodd" d="M51.4681 16.5299L48.5092 26.1986L50.6516 16.9042C50.3412 16.7983 49.8913 16.6229 49.5204 16.5021C44.5673 14.8797 28.3269 8.76044 23.5533 6.69536C23.2429 6.56061 22.9271 6.43763 22.5194 6.27293C17.2699 17.8367 12.0508 29.3321 6.77647 40.9472C16.4891 42.439 27.6304 44.7319 36.4184 48.6289C25.2339 45.4163 15.5764 43.6261 4.26205 42.5182C9.32765 29.3128 15.3698 16.6336 21.3817 3.85815C21.8067 4.04744 22.1993 4.22925 22.5951 4.40143C27.5439 6.54992 51.4076 16.5053 51.4692 16.5309L51.4681 16.5299Z" fill="#363636"/>
  <path d="M34.1138 19.8341C33.9105 19.7688 33.6866 19.817 33.5277 19.9581L16.1615 35.4585C15.6229 35.9387 16.2501 36.776 16.872 36.4071C21.0486 33.9388 25.6611 32.1903 30.4357 31.2652C31.7995 31.0011 33.1545 30.815 34.4491 30.9733C34.5194 30.9819 34.5897 30.9958 34.66 31.0075C34.7768 31.0257 34.8935 31.0449 35.0093 31.0695C35.1369 31.0952 35.2645 31.1252 35.3889 31.1594C35.3932 31.1604 35.3964 31.1615 35.4008 31.1626C35.4029 31.1626 35.404 31.1637 35.4062 31.1647C36.0194 31.3369 36.5969 31.6021 37.0857 31.9604C37.09 31.9636 37.0943 31.9647 37.0987 31.9679C37.1062 31.9732 37.1127 31.9796 37.1203 31.986C37.2306 32.0684 37.3366 32.1561 37.4372 32.2491C37.4436 32.2555 37.4512 32.262 37.4577 32.2684C37.5637 32.3678 37.6643 32.4726 37.7584 32.5828C37.7584 32.5839 37.7605 32.5849 37.7616 32.586C37.7638 32.5881 37.7659 32.5913 37.7681 32.5935C37.7767 32.6042 37.7854 32.6149 37.793 32.6266C37.793 32.6266 37.793 32.6277 37.7951 32.6288C38.3889 33.3528 38.7003 34.3206 38.6311 35.2489C38.59 35.8061 38.3802 36.3344 38.0947 36.8231L37.2858 33.0822C36.9181 32.6726 36.4184 32.3464 35.8507 32.1133L37.1938 38.3246C37.2901 38.7695 37.8351 38.9459 38.179 38.6433C39.1361 37.7995 39.7353 36.5985 39.8283 35.3344C39.9213 34.0704 39.5049 32.7956 38.6819 31.8235C38.4245 31.5187 38.1336 31.2513 37.8189 31.0182C37.5042 30.7851 37.1679 30.5872 36.8164 30.4215C36.7796 30.4044 36.7396 30.3958 36.7028 30.3798L34.5172 20.2736C34.4729 20.0661 34.3193 19.8982 34.1149 19.833L34.1138 19.8341ZM33.5612 21.5259L35.3824 29.9531C35.1207 29.8932 34.8589 29.829 34.5951 29.7969C34.2284 29.752 33.8618 29.7317 33.4985 29.7295L32.6722 25.9053C32.6279 25.6978 32.4743 25.5299 32.2699 25.4646C32.0666 25.3994 31.8427 25.4475 31.6838 25.5887L25.1614 31.4107C23.5457 31.9369 21.9614 32.5561 20.4138 33.2587L33.5579 21.5259H33.5612ZM31.7184 27.1565L32.2872 29.7862C31.5799 29.8525 30.8835 29.9702 30.2065 30.1017C29.404 30.2568 28.607 30.4375 27.8164 30.6407L31.7184 27.1576V27.1565Z" fill="#A13355"/>
  <path d="M82.17 30.6466C81.825 30.3054 81.5125 29.9344 81.2324 29.5376H80.9058C80.5857 29.5376 80.298 29.3515 80.1693 29.0649L73.9671 15.2232C73.7735 14.7901 73.3388 14.511 72.8597 14.511H68.9329C68.5998 14.511 68.2959 14.6436 68.0753 14.8618C67.8579 15.0799 67.7206 15.3772 67.7206 15.7098C67.7206 16.3739 68.2634 16.9108 68.9329 16.9108H71.4343C71.8236 16.9108 72.1784 17.1397 72.3373 17.4904L78.453 31.1353C78.6845 31.6508 79.2025 31.9855 79.7778 31.9855H83.9469C83.8993 31.9588 83.8517 31.932 83.8041 31.9042C83.2093 31.5545 82.6599 31.131 82.17 30.6477V30.6466Z" fill="#363636"/>
  <path d="M81.4206 32.658C80.6495 32.658 80.0244 33.2761 80.0244 34.0386C80.0244 34.8011 80.6495 35.4192 81.4206 35.4192C82.1916 35.4192 82.8167 34.8011 82.8167 34.0386C82.8167 33.2761 82.1916 32.658 81.4206 32.658Z" fill="#363636"/>
  <path d="M88.6977 32.9713C88.4566 32.7756 88.1483 32.658 87.812 32.658C87.4757 32.658 87.1826 32.7702 86.9447 32.9574C86.6224 33.2109 86.4158 33.6001 86.4158 34.0386C86.4158 34.8011 87.0409 35.4192 87.812 35.4192C88.5831 35.4192 89.2082 34.8011 89.2082 34.0386C89.2082 33.6087 89.0092 33.2248 88.6977 32.9713Z" fill="#363636"/>
  <path d="M92.6581 29.9427C92.0449 30.563 91.3322 31.0517 90.519 31.4079C89.7057 31.764 88.8254 31.9426 87.8769 31.9426C87.2421 31.9426 86.6268 31.8592 86.032 31.6934C85.4361 31.5276 84.878 31.2913 84.3578 30.9844C83.8377 30.6774 83.3629 30.3128 82.9346 29.8893C82.5064 29.4658 82.1376 28.9952 81.8272 28.4765C81.5168 27.9579 81.2778 27.405 81.1102 26.8157C80.9426 26.2265 80.8582 25.6147 80.8582 24.9806C80.8582 24.3464 80.9415 23.7336 81.1102 23.1454C81.2778 22.5562 81.5168 22.0043 81.8272 21.4899C82.1376 20.9755 82.5064 20.5061 82.9346 20.0826C83.3629 19.6591 83.8366 19.2965 84.3578 18.9928C84.878 18.6902 85.435 18.4549 86.0265 18.2891C86.6181 18.1234 87.2356 18.041 87.8769 18.041C88.8254 18.041 89.7057 18.2196 90.519 18.5757C91.3322 18.9319 92.0449 19.4206 92.6581 20.0409V18.75C92.6581 18.4399 92.8149 18.2848 93.1285 18.2848H94.2306C94.5658 18.2848 94.7334 18.4399 94.7334 18.75V31.2646C94.7334 31.4057 94.6869 31.518 94.5939 31.6036C94.5009 31.688 94.3906 31.7308 94.2619 31.7308H93.1491C92.9998 31.7308 92.8798 31.6848 92.7911 31.5929C92.7014 31.5009 92.657 31.3918 92.657 31.2646V29.9427H92.6581ZM92.7652 24.9816C92.7652 24.3186 92.6365 23.6855 92.3802 23.0834C92.1239 22.4802 91.7745 21.953 91.3333 21.5017C90.8921 21.0504 90.373 20.6911 89.7782 20.4226C89.1834 20.1542 88.5507 20.0205 87.8813 20.0205C87.2118 20.0205 86.5824 20.1542 85.9952 20.4226C85.4079 20.6911 84.8943 21.0504 84.4563 21.5017C84.0183 21.953 83.6722 22.4802 83.4202 23.0834C83.1671 23.6865 83.0406 24.3197 83.0406 24.9816C83.0406 25.6436 83.1671 26.2692 83.4202 26.8756C83.6733 27.482 84.0183 28.0167 84.4563 28.4787C84.8943 28.9407 85.4069 29.3086 85.9952 29.5845C86.5824 29.8593 87.2118 29.9973 87.8813 29.9973C88.5507 29.9973 89.1834 29.8593 89.7782 29.5845C90.373 29.3096 90.891 28.9407 91.3333 28.4787C91.7745 28.0167 92.1239 27.483 92.3802 26.8756C92.6365 26.2692 92.7652 25.6383 92.7652 24.9816Z" fill="#A13355"/>
  <path d="M100.5 31.2656C100.5 31.5758 100.343 31.7308 100.029 31.7308H98.9274C98.5921 31.7308 98.4245 31.5758 98.4245 31.2656V14.7739C98.4245 14.6327 98.471 14.5204 98.564 14.4349C98.657 14.3504 98.7673 14.3076 98.896 14.3076H100.009C100.158 14.3076 100.278 14.3536 100.367 14.4456C100.455 14.5375 100.501 14.6466 100.501 14.7739V31.2656H100.5Z" fill="#A13355"/>
  <path d="M106.683 15.8534C106.683 16.1635 106.526 16.3186 106.212 16.3186H105.11C104.775 16.3186 104.607 16.1635 104.607 15.8534V14.7636C104.607 14.6225 104.654 14.5102 104.747 14.4246C104.84 14.3401 104.95 14.2974 105.079 14.2974H106.192C106.341 14.2974 106.461 14.3412 106.55 14.43C106.638 14.5187 106.684 14.6289 106.684 14.7636V15.8534H106.683ZM106.683 31.2661C106.683 31.5762 106.526 31.7313 106.212 31.7313H105.11C104.775 31.7313 104.607 31.5762 104.607 31.2661V18.7622C104.607 18.6211 104.654 18.5088 104.747 18.4232C104.84 18.3387 104.95 18.296 105.079 18.296H106.192C106.341 18.296 106.461 18.342 106.55 18.4339C106.638 18.5259 106.684 18.635 106.684 18.7622V31.2661H106.683Z" fill="#A13355"/>
  <path d="M120.161 28.6744C120.211 28.6316 120.266 28.5878 120.326 28.5418C120.387 28.4958 120.451 28.4626 120.519 28.4412C120.587 28.4199 120.654 28.4199 120.722 28.4412C120.79 28.4626 120.86 28.5193 120.931 28.6102C121.074 28.8006 121.189 28.9556 121.278 29.0754C121.367 29.1952 121.44 29.2904 121.498 29.361C121.555 29.439 121.597 29.4946 121.626 29.5299C121.662 29.5866 121.692 29.6433 121.717 29.6989C121.742 29.7556 121.747 29.8165 121.733 29.8839C121.719 29.9513 121.681 30.0251 121.621 30.1063C121.56 30.1876 121.466 30.2775 121.338 30.3758C121.03 30.6154 120.711 30.8325 120.38 31.0261C120.048 31.2196 119.701 31.3875 119.338 31.5287C118.975 31.6699 118.591 31.7789 118.188 31.857C117.785 31.9351 117.359 31.9736 116.91 31.9736C116.275 31.9736 115.662 31.8902 115.07 31.7244C114.479 31.5586 113.921 31.3223 113.396 31.0154C112.872 30.7084 112.395 30.3438 111.963 29.9203C111.532 29.4968 111.159 29.0284 110.845 28.5129C110.532 27.9985 110.289 27.4467 110.117 26.8574C109.946 26.2682 109.861 25.6564 109.861 25.0223C109.861 24.3881 109.946 23.7764 110.117 23.1871C110.288 22.5979 110.53 22.046 110.845 21.5316C111.159 21.0172 111.532 20.5478 111.963 20.1243C112.395 19.7008 112.873 19.3361 113.396 19.0292C113.921 18.7222 114.479 18.4859 115.07 18.3201C115.662 18.1544 116.275 18.072 116.91 18.072C117.309 18.072 117.707 18.1094 118.103 18.1832C118.499 18.257 118.88 18.3597 119.247 18.4902C119.615 18.6206 119.96 18.7746 120.284 18.95C120.609 19.1265 120.9 19.3168 121.156 19.5211C121.206 19.5639 121.264 19.6109 121.332 19.6644C121.4 19.7168 121.456 19.7778 121.503 19.8441C121.549 19.9114 121.58 19.9852 121.594 20.0665C121.608 20.1478 121.591 20.2344 121.54 20.3253L120.759 21.3413C120.574 21.5808 120.36 21.5776 120.118 21.3306C119.925 21.1327 119.703 20.9552 119.455 20.7959C119.205 20.6376 118.938 20.4996 118.652 20.3831C118.367 20.2665 118.07 20.1767 117.764 20.1136C117.457 20.0505 117.154 20.0184 116.855 20.0184C116.228 20.0184 115.621 20.1521 115.036 20.4205C114.451 20.6889 113.934 21.0515 113.485 21.5103C113.036 21.969 112.676 22.5016 112.405 23.108C112.133 23.7143 111.998 24.3528 111.998 25.0223C111.998 25.6917 112.132 26.3398 112.399 26.9419C112.666 27.5451 113.025 28.0723 113.474 28.5236C113.923 28.9749 114.442 29.3332 115.03 29.5973C115.619 29.8615 116.23 29.9941 116.865 29.9941C117.257 29.9941 117.612 29.9566 117.929 29.8828C118.246 29.809 118.534 29.7096 118.795 29.5866C119.056 29.4636 119.296 29.3225 119.517 29.1631C119.738 29.0048 119.952 28.8401 120.159 28.6712L120.161 28.6744Z" fill="#363636"/>
  <path d="M123.669 25.0356C123.669 24.0838 123.856 23.1865 124.232 22.3438C124.607 21.5011 125.113 20.7621 125.752 20.1279C126.391 19.4927 127.135 18.9922 127.984 18.6254C128.833 18.2586 129.736 18.0757 130.692 18.0757C131.327 18.0757 131.942 18.1591 132.539 18.3238C133.135 18.4896 133.693 18.7259 134.215 19.0328C134.736 19.3398 135.211 19.7044 135.638 20.1279C136.066 20.5514 136.435 21.022 136.746 21.5406C137.057 22.0593 137.296 22.6122 137.463 23.2015C137.631 23.7907 137.715 24.4025 137.715 25.0366C137.715 25.6708 137.631 26.2836 137.463 26.8718C137.296 27.461 137.057 28.0129 136.746 28.5273C136.436 29.0417 136.066 29.5111 135.638 29.9346C135.21 30.3581 134.735 30.7207 134.215 31.0244C133.693 31.3281 133.135 31.5623 132.539 31.7281C131.943 31.8938 131.328 31.9773 130.692 31.9773C130.056 31.9773 129.442 31.8938 128.845 31.7281C128.249 31.5623 127.691 31.3281 127.17 31.0244C126.649 30.7217 126.174 30.3581 125.746 29.9346C125.317 29.5111 124.95 29.0427 124.642 28.5273C124.335 28.0129 124.096 27.461 123.925 26.8718C123.755 26.2836 123.668 25.6708 123.668 25.0366L123.669 25.0356ZM125.798 25.0356C125.798 25.7061 125.926 26.3403 126.183 26.9391C126.439 27.5391 126.788 28.0642 127.23 28.5155C127.673 28.9668 128.19 29.3261 128.781 29.5946C129.373 29.863 130.008 29.9967 130.686 29.9967C131.364 29.9967 131.986 29.863 132.574 29.5946C133.162 29.3261 133.676 28.9668 134.114 28.5155C134.552 28.0642 134.898 27.5391 135.151 26.9391C135.404 26.3403 135.531 25.705 135.531 25.0356C135.531 24.3661 135.404 23.749 135.151 23.1416C134.898 22.5352 134.552 22.0005 134.114 21.5385C133.675 21.0765 133.162 20.7086 132.574 20.4327C131.986 20.1579 131.356 20.0199 130.686 20.0199C130.015 20.0199 129.374 20.1579 128.781 20.4327C128.19 20.7076 127.673 21.0765 127.23 21.5385C126.788 22.0005 126.439 22.5342 126.183 23.1416C125.926 23.748 125.798 24.3789 125.798 25.0356Z" fill="#363636"/>
  <path d="M150.124 30.1653C149.917 30.4124 149.701 30.6327 149.477 30.8262C149.252 31.0198 148.999 31.1845 148.718 31.3182C148.436 31.4519 148.117 31.5545 147.761 31.6251C147.404 31.6957 146.991 31.731 146.521 31.731C145.644 31.731 144.869 31.5813 144.2 31.2818C143.529 30.9824 142.968 30.5728 142.515 30.0552C142.062 29.5365 141.72 28.9291 141.487 28.2307C141.256 27.5324 141.14 26.7849 141.14 25.9881V18.8058C141.14 18.5663 141.203 18.3866 141.327 18.2668C141.452 18.147 141.611 18.0872 141.803 18.0872H142.595C142.859 18.0872 143.029 18.1406 143.103 18.2454C143.178 18.3513 143.216 18.5278 143.216 18.7748V25.9892C143.216 26.4127 143.274 26.8447 143.392 27.2854C143.51 27.726 143.702 28.1259 143.969 28.4863C144.237 28.8457 144.591 29.1387 145.034 29.3643C145.476 29.59 146.018 29.7033 146.66 29.7033C147.067 29.7033 147.474 29.6306 147.885 29.4862C148.295 29.3419 148.666 29.128 148.998 28.8467C149.33 28.5644 149.601 28.2179 149.811 27.8051C150.021 27.3923 150.127 26.9153 150.127 26.3721V18.5545C150.127 18.2444 150.284 18.0893 150.598 18.0893H151.7C152.035 18.0893 152.203 18.2444 152.203 18.5545V31.0583C152.203 31.1995 152.156 31.3118 152.063 31.3973C151.97 31.4818 151.86 31.5246 151.731 31.5246H150.618C150.469 31.5246 150.349 31.4786 150.26 31.3866C150.171 31.2947 150.126 31.1856 150.126 31.0583V30.1696L150.124 30.1653Z" fill="#363636"/>
  <path d="M157.997 20.0421C158.61 19.4218 159.325 18.9331 160.138 18.577C160.952 18.2208 161.834 18.0422 162.784 18.0422C163.426 18.0422 164.044 18.1257 164.636 18.2903C165.229 18.4561 165.786 18.6903 166.307 18.994C166.828 19.2978 167.303 19.6603 167.731 20.0838C168.16 20.5073 168.53 20.9757 168.84 21.4912C169.15 22.0056 169.389 22.5574 169.557 23.1466C169.725 23.7359 169.809 24.3476 169.809 24.9818C169.809 25.616 169.725 26.2288 169.557 26.8169C169.389 27.4062 169.15 27.9591 168.84 28.4778C168.53 28.9964 168.16 29.467 167.731 29.8905C167.303 30.314 166.828 30.6787 166.307 30.9856C165.786 31.2925 165.228 31.5289 164.632 31.6946C164.036 31.8604 163.42 31.9438 162.785 31.9438C161.835 31.9438 160.954 31.7652 160.139 31.4091C159.326 31.053 158.612 30.5642 157.998 29.944V35.3393C157.998 35.4665 157.954 35.5756 157.864 35.6676C157.774 35.7595 157.655 35.8055 157.506 35.8055H156.393C156.265 35.8055 156.154 35.7627 156.061 35.6783C155.968 35.5938 155.922 35.4804 155.922 35.3393V18.7523C155.922 18.4422 156.089 18.2871 156.425 18.2871H157.527C157.84 18.2871 157.997 18.4422 157.997 18.7523V20.0431V20.0421ZM157.89 24.9818C157.89 25.6374 158.019 26.2694 158.275 26.8758C158.531 27.4821 158.881 28.0168 159.323 28.4788C159.765 28.9408 160.282 29.3087 160.874 29.5846C161.465 29.8595 162.1 29.9974 162.778 29.9974C163.456 29.9974 164.078 29.8595 164.666 29.5846C165.255 29.3098 165.769 28.9408 166.207 28.4788C166.646 28.0168 166.991 27.4832 167.244 26.8758C167.497 26.2694 167.623 25.6384 167.623 24.9818C167.623 24.3252 167.497 23.6856 167.244 23.0835C166.991 22.4804 166.644 21.9532 166.207 21.5019C165.769 21.0506 165.255 20.6912 164.666 20.4228C164.078 20.1544 163.449 20.0207 162.778 20.0207C162.108 20.0207 161.466 20.1544 160.874 20.4228C160.282 20.6912 159.765 21.0506 159.323 21.5019C158.881 21.9532 158.531 22.4804 158.275 23.0835C158.019 23.6867 157.89 24.3198 157.89 24.9818Z" fill="#363636"/>
  <path d="M172.641 25.0356C172.641 24.0838 172.828 23.1865 173.204 22.3438C173.579 21.5011 174.085 20.7621 174.724 20.1279C175.363 19.4927 176.107 18.9922 176.956 18.6254C177.805 18.2586 178.708 18.0757 179.664 18.0757C180.299 18.0757 180.915 18.1591 181.511 18.3238C182.107 18.4896 182.665 18.7259 183.187 19.0328C183.708 19.3398 184.183 19.7044 184.61 20.1279C185.038 20.5514 185.407 21.022 185.718 21.5406C186.029 22.0593 186.268 22.6122 186.435 23.2015C186.603 23.7907 186.687 24.4025 186.687 25.0366C186.687 25.6708 186.603 26.2836 186.435 26.8718C186.268 27.461 186.029 28.0129 185.718 28.5273C185.408 29.0417 185.038 29.5111 184.61 29.9346C184.182 30.3581 183.707 30.7207 183.187 31.0244C182.665 31.3281 182.107 31.5623 181.511 31.7281C180.916 31.8938 180.3 31.9773 179.664 31.9773C179.028 31.9773 178.414 31.8938 177.817 31.7281C177.221 31.5623 176.663 31.3281 176.142 31.0244C175.621 30.7217 175.146 30.3581 174.718 29.9346C174.289 29.5111 173.922 29.0427 173.615 28.5273C173.307 28.0129 173.068 27.461 172.898 26.8718C172.727 26.2836 172.64 25.6708 172.64 25.0366L172.641 25.0356ZM174.77 25.0356C174.77 25.7061 174.898 26.3403 175.155 26.9391C175.411 27.5391 175.76 28.0642 176.203 28.5155C176.645 28.9668 177.162 29.3261 177.753 29.5946C178.345 29.863 178.98 29.9967 179.658 29.9967C180.336 29.9967 180.958 29.863 181.546 29.5946C182.134 29.3261 182.648 28.9668 183.086 28.5155C183.524 28.0642 183.87 27.5391 184.123 26.9391C184.376 26.3403 184.503 25.705 184.503 25.0356C184.503 24.3661 184.376 23.749 184.123 23.1416C183.87 22.5352 183.524 22.0005 183.086 21.5385C182.647 21.0765 182.134 20.7086 181.546 20.4327C180.958 20.1579 180.328 20.0199 179.658 20.0199C178.987 20.0199 178.346 20.1579 177.753 20.4327C177.162 20.7076 176.645 21.0765 176.203 21.5385C175.76 22.0005 175.411 22.5342 175.155 23.1416C174.898 23.748 174.77 24.3789 174.77 25.0356Z" fill="#363636"/>
  <path d="M192.185 20.074C192.385 19.827 192.608 19.5853 192.858 19.3489C193.108 19.1126 193.388 18.9008 193.697 18.7148C194.008 18.5276 194.352 18.3758 194.729 18.2603C195.107 18.1437 195.532 18.0859 196.002 18.0859C196.879 18.0859 197.653 18.2357 198.323 18.5351C198.993 18.8345 199.555 19.2441 200.008 19.7617C200.461 20.2804 200.803 20.8879 201.035 21.5862C201.267 22.2845 201.382 23.0321 201.382 23.8288V31.0111C201.382 31.2507 201.32 31.4303 201.195 31.5501C201.071 31.6699 200.912 31.7298 200.719 31.7298H199.928C199.664 31.7298 199.494 31.6774 199.42 31.5715C199.345 31.4656 199.307 31.2892 199.307 31.0421V23.8277C199.307 23.4042 199.249 22.9722 199.131 22.5316C199.013 22.091 198.82 21.691 198.553 21.3306C198.286 20.9713 197.931 20.6782 197.489 20.4526C197.047 20.2269 196.505 20.1136 195.864 20.1136C195.457 20.1136 195.036 20.1863 194.602 20.3307C194.167 20.475 193.771 20.6889 193.414 20.9702C193.057 21.2525 192.763 21.6012 192.532 22.0172C192.3 22.4332 192.185 22.9091 192.185 23.4449V31.2624C192.185 31.5726 192.028 31.7276 191.714 31.7276H190.612C190.277 31.7276 190.109 31.5726 190.109 31.2624V18.7586C190.109 18.6174 190.156 18.5052 190.249 18.4196C190.342 18.3351 190.452 18.2923 190.581 18.2923H191.694C191.843 18.2923 191.963 18.3383 192.051 18.4303C192.14 18.5223 192.186 18.6313 192.186 18.7586V20.0697L192.185 20.074Z" fill="#363636"/>
  <path d="M206.893 19.6506C207.094 19.4035 207.307 19.1832 207.536 18.9897C207.764 18.7961 208.019 18.6314 208.3 18.4977C208.582 18.3641 208.901 18.2614 209.258 18.1908C209.614 18.1202 210.028 18.0849 210.498 18.0849C211.296 18.0849 212.026 18.2347 212.686 18.5341C213.345 18.8335 213.912 19.2431 214.387 19.7607C214.861 20.2794 215.228 20.8868 215.489 21.5852C215.75 22.2835 215.879 23.0311 215.879 23.8278V31.0101C215.879 31.2497 215.817 31.4293 215.692 31.5491C215.568 31.6689 215.409 31.7288 215.216 31.7288H214.425C214.161 31.7288 213.991 31.6764 213.916 31.5705C213.842 31.4646 213.804 31.2882 213.804 31.0411V23.8267C213.804 23.4032 213.73 22.9712 213.584 22.5306C213.438 22.09 213.221 21.69 212.932 21.3296C212.644 20.9703 212.283 20.6772 211.852 20.4516C211.42 20.2259 210.923 20.1126 210.36 20.1126C209.953 20.1126 209.543 20.1853 209.129 20.3297C208.715 20.474 208.343 20.6879 208.011 20.9692C207.679 21.2515 207.409 21.6002 207.203 22.0162C206.996 22.4322 206.892 22.9081 206.892 23.4439V31.2614C206.892 31.5716 206.736 31.7266 206.422 31.7266H205.32C204.985 31.7266 204.817 31.5716 204.817 31.2614V14.759C204.817 14.6178 204.864 14.5055 204.957 14.42C205.05 14.3355 205.16 14.2927 205.289 14.2927H206.401C206.551 14.2927 206.671 14.3387 206.759 14.4307C206.848 14.5227 206.893 14.6317 206.893 14.759V19.6463V19.6506Z" fill="#363636"/>
  <path d="M228.512 30.1653C228.305 30.4124 228.089 30.6327 227.865 30.8262C227.64 31.0198 227.387 31.1845 227.106 31.3182C226.824 31.4519 226.505 31.5545 226.149 31.6251C225.792 31.6957 225.379 31.731 224.909 31.731C224.031 31.731 223.257 31.5813 222.588 31.2818C221.917 30.9824 221.356 30.5728 220.903 30.0552C220.45 29.5365 220.108 28.9291 219.875 28.2307C219.644 27.5324 219.528 26.7849 219.528 25.9881V18.8058C219.528 18.5663 219.591 18.3866 219.715 18.2668C219.84 18.147 219.999 18.0872 220.191 18.0872H220.983C221.247 18.0872 221.417 18.1406 221.491 18.2454C221.566 18.3513 221.604 18.5278 221.604 18.7748V25.9892C221.604 26.4127 221.662 26.8447 221.78 27.2854C221.898 27.726 222.09 28.1259 222.357 28.4863C222.625 28.8457 222.979 29.1387 223.422 29.3643C223.864 29.59 224.406 29.7033 225.048 29.7033C225.455 29.7033 225.862 29.6306 226.273 29.4862C226.683 29.3419 227.054 29.128 227.386 28.8467C227.718 28.5644 227.989 28.2179 228.199 27.8051C228.409 27.3923 228.515 26.9153 228.515 26.3721V18.5545C228.515 18.2444 228.672 18.0893 228.986 18.0893H230.088C230.423 18.0893 230.591 18.2444 230.591 18.5545V31.0583C230.591 31.1995 230.544 31.3118 230.451 31.3973C230.358 31.4818 230.248 31.5246 230.119 31.5246H229.006C228.857 31.5246 228.737 31.4786 228.648 31.3866C228.559 31.2947 228.514 31.1856 228.514 31.0583V30.1696L228.512 30.1653Z" fill="#363636"/>
  <path d="M236.363 20.0741C236.977 19.4539 237.691 18.9652 238.505 18.609C239.318 18.2529 240.2 18.0743 241.15 18.0743C241.785 18.0743 242.401 18.1577 242.997 18.3224C243.593 18.4882 244.151 18.7245 244.672 19.0315C245.194 19.3384 245.668 19.7031 246.097 20.1266C246.525 20.5501 246.895 21.0206 247.205 21.5393C247.516 22.0579 247.755 22.6108 247.922 23.2001C248.09 23.7894 248.174 24.4011 248.174 25.0353C248.174 25.6694 248.09 26.2822 247.922 26.8704C247.755 27.4597 247.516 28.0115 247.205 28.5259C246.895 29.0403 246.525 29.5098 246.097 29.9333C245.668 30.3567 245.194 30.7193 244.672 31.023C244.151 31.3267 243.593 31.5609 242.997 31.7267C242.401 31.8925 241.785 31.9759 241.15 31.9759C240.2 31.9759 239.319 31.7994 238.505 31.4465C237.69 31.0936 236.978 30.607 236.363 29.9867V31.2668C236.363 31.577 236.207 31.732 235.893 31.732H234.791C234.456 31.732 234.288 31.577 234.288 31.2668V14.7751C234.288 14.6339 234.335 14.5217 234.428 14.4361C234.521 14.3516 234.631 14.3088 234.76 14.3088H235.872C236.022 14.3088 236.142 14.3548 236.23 14.4468C236.319 14.5388 236.365 14.6478 236.365 14.7751V20.0752L236.363 20.0741ZM236.256 25.0353C236.256 25.7058 236.385 26.34 236.641 26.9388C236.898 27.5388 237.247 28.0639 237.689 28.5152C238.132 28.9665 238.649 29.3258 239.24 29.5942C239.832 29.8627 240.467 29.9964 241.145 29.9964C241.823 29.9964 242.445 29.8627 243.033 29.5942C243.621 29.3258 244.135 28.9665 244.573 28.5152C245.012 28.0639 245.357 27.5388 245.61 26.9388C245.863 26.34 245.99 25.7047 245.99 25.0353C245.99 24.3658 245.863 23.7487 245.61 23.1413C245.357 22.5349 245.011 22.0002 244.573 21.5382C244.134 21.0762 243.621 20.7083 243.033 20.4324C242.445 20.1576 241.815 20.0196 241.145 20.0196C240.474 20.0196 239.833 20.1576 239.24 20.4324C238.649 20.7073 238.132 21.0762 237.689 21.5382C237.247 22.0002 236.898 22.5339 236.641 23.1413C236.385 23.7477 236.256 24.3786 236.256 25.0353Z" fill="#363636"/>
  <path d="M88.7767 47.2802H67.8936C67.7984 47.2802 67.7206 47.1615 67.7206 47.015C67.7206 46.8685 67.7984 46.7498 67.8936 46.7498H88.7767C88.8719 46.7498 88.9498 46.8685 88.9498 47.015C88.9498 47.1615 88.8719 47.2802 88.7767 47.2802Z" fill="#363636"/>
  <path d="M247.969 47.2802H227.086C226.99 47.2802 226.912 47.1615 226.912 47.015C226.912 46.8685 226.99 46.7498 227.086 46.7498H247.969C248.064 46.7498 248.142 46.8685 248.142 47.015C248.142 47.1615 248.064 47.2802 247.969 47.2802Z" fill="#363636"/>
  <path d="M96.1393 43.5736C96.2367 43.5736 96.2864 43.6238 96.2864 43.7254V44.0377C96.2864 44.0773 96.2745 44.1126 96.2496 44.1414C96.2248 44.1714 96.1869 44.1853 96.1328 44.1853H93.5611V45.4814H95.5835C95.6213 45.4814 95.6548 45.4921 95.6819 45.5146C95.71 45.5371 95.723 45.5745 95.723 45.6269V45.9488C95.723 45.9862 95.7111 46.0204 95.6884 46.0493C95.6646 46.0793 95.63 46.0932 95.5835 46.0932H93.5611V47.6449H96.1447C96.2421 47.6449 96.2918 47.6941 96.2918 47.7936V48.1187C96.2918 48.2117 96.2453 48.2577 96.1512 48.2577H93.082C92.9879 48.2577 92.9414 48.2139 92.9414 48.1251V43.718C92.9414 43.6217 92.9879 43.5725 93.082 43.5725H96.1383L96.1393 43.5736Z" fill="#363636"/>
  <path d="M100.709 48.1199C100.736 48.1616 100.746 48.1958 100.74 48.2204C100.733 48.2461 100.704 48.2578 100.65 48.2578H100.181C100.143 48.2578 100.108 48.2482 100.079 48.2279C100.049 48.2076 100.02 48.1787 99.9893 48.1413L98.8246 46.4409L97.6664 48.1413C97.6382 48.1787 97.6101 48.2076 97.5798 48.2279C97.5496 48.2482 97.516 48.2578 97.4782 48.2578H97.0056C96.9526 48.2578 96.9223 48.245 96.9158 48.2204C96.9093 48.1947 96.9212 48.1616 96.9504 48.1199L98.4656 45.9211C98.3315 45.7254 98.1974 45.5297 98.0622 45.3329C97.927 45.1362 97.7951 44.9447 97.6664 44.7576C97.5377 44.5704 97.4133 44.3897 97.2933 44.2165C97.1732 44.0432 97.0607 43.8828 96.9569 43.7352C96.9147 43.6721 96.9007 43.6293 96.9169 43.6069C96.9331 43.5844 96.9742 43.5737 97.0402 43.5737H97.436C97.489 43.5737 97.5312 43.5834 97.5625 43.6037C97.5939 43.624 97.6296 43.6604 97.6728 43.7128L98.8246 45.3907L99.9829 43.7128C100.025 43.6604 100.063 43.624 100.094 43.6037C100.126 43.5834 100.169 43.5737 100.222 43.5737H100.614C100.683 43.5737 100.725 43.5844 100.741 43.6069C100.757 43.6293 100.743 43.6721 100.701 43.7352C100.597 43.8828 100.485 44.0432 100.365 44.2165C100.245 44.3897 100.119 44.5704 99.9893 44.7576C99.8596 44.9447 99.7276 45.1362 99.5924 45.3329C99.4573 45.5297 99.3242 45.7254 99.1923 45.9211L100.707 48.1199H100.709Z" fill="#363636"/>
  <path d="M101.71 43.7256C101.71 43.6251 101.759 43.5737 101.857 43.5737H103.442C103.653 43.5737 103.848 43.6122 104.028 43.6903C104.207 43.7684 104.363 43.8742 104.495 44.0068C104.627 44.1395 104.729 44.2956 104.804 44.4742C104.879 44.6528 104.915 44.8399 104.915 45.0378C104.915 45.2356 104.879 45.4153 104.805 45.5896C104.732 45.7639 104.63 45.9179 104.499 46.0516C104.368 46.1853 104.214 46.2912 104.036 46.3703C103.859 46.4494 103.665 46.489 103.458 46.489H102.325V48.1199C102.325 48.2129 102.279 48.2589 102.185 48.2589H101.849C101.755 48.2589 101.709 48.2129 101.709 48.1199V43.7256H101.71ZM104.3 45.0314C104.3 44.9201 104.277 44.8132 104.233 44.7095C104.189 44.6068 104.127 44.5159 104.049 44.4368C103.971 44.3576 103.88 44.2945 103.777 44.2475C103.673 44.2004 103.56 44.1769 103.441 44.1769H102.324V45.8869H103.441C103.556 45.8869 103.665 45.8634 103.77 45.8174C103.875 45.7714 103.966 45.7083 104.045 45.6302C104.124 45.5511 104.185 45.4602 104.232 45.3575C104.278 45.2549 104.3 45.1458 104.3 45.0324V45.0314Z" fill="#363636"/>
  <path d="M105.979 43.7256C105.979 43.6251 106.025 43.5737 106.119 43.5737H107.96C108.173 43.5737 108.37 43.6133 108.553 43.6924C108.737 43.7716 108.896 43.8785 109.033 44.0143C109.169 44.1502 109.276 44.3084 109.353 44.4913C109.429 44.6742 109.469 44.8667 109.469 45.0731C109.469 45.2207 109.449 45.3618 109.407 45.4976C109.365 45.6335 109.307 45.7586 109.233 45.8751C109.158 45.9906 109.069 46.0944 108.964 46.1864C108.86 46.2783 108.744 46.3543 108.616 46.4152L109.459 48.122V48.1627C109.459 48.2279 109.42 48.26 109.341 48.26H108.955C108.889 48.26 108.838 48.2215 108.801 48.1434L108.035 46.5532C108.018 46.5553 108 46.5564 107.979 46.5564C107.959 46.5564 107.931 46.5564 107.893 46.5574C107.855 46.5585 107.806 46.5585 107.745 46.5585H106.596V48.1199C106.596 48.2129 106.547 48.2589 106.449 48.2589H106.117C106.023 48.2589 105.976 48.2129 105.976 48.1199V43.7256H105.979ZM108.856 45.0667C108.856 44.9512 108.834 44.8399 108.788 44.7319C108.743 44.625 108.68 44.5298 108.6 44.4485C108.52 44.3662 108.426 44.3009 108.317 44.2517C108.207 44.2026 108.088 44.178 107.961 44.178H106.598V45.9575H107.973C108.098 45.9575 108.215 45.9329 108.324 45.8848C108.432 45.8366 108.526 45.7714 108.605 45.6891C108.684 45.6067 108.746 45.5126 108.79 45.4057C108.835 45.2987 108.857 45.1864 108.857 45.0677L108.856 45.0667Z" fill="#363636"/>
  <path d="M113.753 43.5736C113.851 43.5736 113.9 43.6238 113.9 43.7254V44.0377C113.9 44.0773 113.888 44.1126 113.864 44.1414C113.839 44.1714 113.8 44.1853 113.747 44.1853H111.175V45.4814H113.197C113.235 45.4814 113.269 45.4921 113.297 45.5146C113.324 45.5371 113.338 45.5745 113.338 45.6269V45.9488C113.338 45.9862 113.326 46.0204 113.303 46.0493C113.28 46.0793 113.245 46.0932 113.198 46.0932H111.176V47.6449H113.761C113.858 47.6449 113.908 47.6941 113.908 47.7936V48.1187C113.908 48.2117 113.861 48.2577 113.767 48.2577H110.698C110.604 48.2577 110.558 48.2139 110.558 48.1251V43.718C110.558 43.6217 110.604 43.5725 110.698 43.5725H113.754L113.753 43.5736Z" fill="#363636"/>
  <path d="M117.565 44.5961C117.535 44.5769 117.486 44.5405 117.418 44.486C117.35 44.4314 117.267 44.3758 117.167 44.3192C117.069 44.2625 116.958 44.2111 116.834 44.1662C116.711 44.1213 116.578 44.0988 116.435 44.0988C116.268 44.0988 116.123 44.1192 116.002 44.1587C115.88 44.1983 115.781 44.2518 115.702 44.3181C115.623 44.3844 115.566 44.4592 115.528 44.5416C115.491 44.625 115.472 44.7084 115.472 44.7918C115.472 44.9095 115.511 45.0089 115.59 45.0881C115.668 45.1683 115.772 45.2378 115.902 45.2966C116.032 45.3554 116.179 45.4089 116.344 45.456C116.509 45.503 116.678 45.5533 116.848 45.6057C117.019 45.6581 117.188 45.7169 117.352 45.7821C117.517 45.8474 117.665 45.9286 117.795 46.0249C117.924 46.1211 118.028 46.2377 118.107 46.3725C118.186 46.5072 118.225 46.6698 118.225 46.8612C118.225 47.0815 118.179 47.2826 118.087 47.4622C117.994 47.6419 117.867 47.7959 117.707 47.9231C117.547 48.0504 117.358 48.1488 117.14 48.2183C116.923 48.2878 116.69 48.322 116.442 48.322C116.276 48.322 116.112 48.3039 115.949 48.2664C115.786 48.2301 115.63 48.1755 115.479 48.106C115.329 48.0365 115.189 47.9499 115.06 47.8494C114.93 47.7488 114.814 47.6323 114.711 47.5018C114.683 47.4686 114.67 47.4344 114.671 47.4013C114.671 47.3681 114.691 47.336 114.728 47.3071L114.98 47.0986C115.015 47.0697 115.051 47.0558 115.085 47.059C115.118 47.0622 115.149 47.0804 115.178 47.1147L115.219 47.1553C115.308 47.2537 115.41 47.3403 115.524 47.412C115.637 47.4836 115.751 47.5446 115.865 47.5916C115.979 47.6387 116.088 47.674 116.192 47.6975C116.296 47.721 116.384 47.7317 116.457 47.7317C116.587 47.7317 116.72 47.7146 116.856 47.6814C116.992 47.6483 117.117 47.5959 117.229 47.5264C117.342 47.4569 117.435 47.3692 117.507 47.2633C117.579 47.1574 117.615 47.0323 117.615 46.889C117.615 46.7692 117.579 46.6676 117.508 46.5842C117.437 46.5008 117.34 46.4281 117.219 46.366C117.098 46.304 116.957 46.2484 116.793 46.1992C116.631 46.15 116.457 46.0976 116.272 46.0431C116.017 45.9693 115.797 45.8923 115.614 45.811C115.432 45.7297 115.281 45.641 115.163 45.5426C115.046 45.4453 114.959 45.3351 114.904 45.2143C114.849 45.0934 114.821 44.9576 114.821 44.8057C114.821 44.6143 114.86 44.4389 114.937 44.2807C115.015 44.1224 115.126 43.9844 115.267 43.8689C115.41 43.7534 115.582 43.6636 115.782 43.5994C115.982 43.5353 116.208 43.5032 116.457 43.5032C116.591 43.5032 116.731 43.5203 116.874 43.5534C117.018 43.5866 117.16 43.6336 117.297 43.6935C117.435 43.7534 117.563 43.8251 117.683 43.9085C117.803 43.9919 117.907 44.0839 117.995 44.1844C118.025 44.2165 118.04 44.2496 118.041 44.2839C118.042 44.3181 118.026 44.3512 117.991 44.3833L117.765 44.5983C117.732 44.6293 117.697 44.6443 117.662 44.6421C117.626 44.64 117.595 44.6239 117.564 44.5951L117.565 44.5961Z" fill="#363636"/>
  <path d="M122.004 44.5961C121.973 44.5769 121.925 44.5405 121.857 44.486C121.789 44.4314 121.705 44.3758 121.606 44.3192C121.506 44.2625 121.396 44.2111 121.273 44.1662C121.149 44.1213 121.016 44.0988 120.874 44.0988C120.706 44.0988 120.561 44.1192 120.44 44.1587C120.319 44.1983 120.218 44.2518 120.14 44.3181C120.063 44.3844 120.004 44.4592 119.966 44.5416C119.929 44.625 119.91 44.7084 119.91 44.7918C119.91 44.9095 119.949 45.0089 120.028 45.0881C120.107 45.1683 120.211 45.2378 120.34 45.2966C120.47 45.3554 120.617 45.4089 120.783 45.456C120.948 45.503 121.116 45.5533 121.287 45.6057C121.458 45.6581 121.626 45.7169 121.791 45.7821C121.955 45.8474 122.103 45.9286 122.233 46.0249C122.363 46.1211 122.467 46.2377 122.546 46.3725C122.624 46.5072 122.663 46.6698 122.663 46.8612C122.663 47.0815 122.617 47.2826 122.525 47.4622C122.432 47.6419 122.305 47.7959 122.145 47.9231C121.984 48.0504 121.796 48.1488 121.579 48.2183C121.361 48.2878 121.129 48.322 120.88 48.322C120.715 48.322 120.55 48.3039 120.387 48.2664C120.225 48.2301 120.068 48.1755 119.918 48.106C119.767 48.0365 119.628 47.9499 119.498 47.8494C119.368 47.7488 119.252 47.6323 119.151 47.5018C119.123 47.4686 119.11 47.4344 119.111 47.4013C119.111 47.3681 119.13 47.336 119.167 47.3071L119.419 47.0986C119.455 47.0697 119.49 47.0558 119.524 47.059C119.557 47.0622 119.589 47.0804 119.617 47.1147L119.658 47.1553C119.748 47.2537 119.848 47.3403 119.963 47.412C120.077 47.4847 120.19 47.5446 120.305 47.5916C120.418 47.6387 120.528 47.674 120.631 47.6975C120.735 47.721 120.824 47.7317 120.896 47.7317C121.026 47.7317 121.159 47.7146 121.295 47.6814C121.432 47.6483 121.556 47.5959 121.668 47.5264C121.781 47.4569 121.874 47.3692 121.946 47.2633C122.019 47.1574 122.055 47.0323 122.055 46.889C122.055 46.7692 122.019 46.6676 121.948 46.5842C121.876 46.5008 121.78 46.4281 121.659 46.366C121.538 46.304 121.396 46.2484 121.233 46.1992C121.07 46.15 120.896 46.0976 120.711 46.0431C120.456 45.9693 120.237 45.8923 120.054 45.811C119.871 45.7297 119.721 45.641 119.603 45.5426C119.485 45.4442 119.398 45.3351 119.343 45.2143C119.288 45.0934 119.26 44.9576 119.26 44.8057C119.26 44.6143 119.299 44.4389 119.377 44.2807C119.455 44.1224 119.565 43.9844 119.707 43.8689C119.849 43.7534 120.021 43.6636 120.221 43.5994C120.423 43.5353 120.648 43.5032 120.896 43.5032C121.03 43.5032 121.17 43.5203 121.315 43.5534C121.46 43.5866 121.6 43.6336 121.738 43.6935C121.875 43.7534 122.004 43.8251 122.124 43.9085C122.244 43.9919 122.348 44.0839 122.435 44.1844C122.466 44.2165 122.481 44.2496 122.482 44.2839C122.482 44.3181 122.467 44.3512 122.432 44.3833L122.206 44.5983C122.171 44.6293 122.138 44.6443 122.102 44.6421C122.066 44.64 122.035 44.6239 122.005 44.5951L122.004 44.5961Z" fill="#363636"/>
  <path d="M128.633 44.5961C128.603 44.5769 128.554 44.5405 128.486 44.486C128.418 44.4314 128.335 44.3758 128.235 44.3192C128.137 44.2625 128.025 44.2111 127.902 44.1662C127.779 44.1213 127.646 44.0988 127.503 44.0988C127.335 44.0988 127.19 44.1192 127.069 44.1587C126.948 44.1983 126.849 44.2518 126.77 44.3181C126.691 44.3844 126.633 44.4592 126.596 44.5416C126.559 44.625 126.539 44.7084 126.539 44.7918C126.539 44.9095 126.578 45.0089 126.657 45.0881C126.736 45.1683 126.84 45.2378 126.97 45.2966C127.1 45.3554 127.247 45.4089 127.412 45.456C127.577 45.503 127.745 45.5533 127.916 45.6057C128.087 45.6581 128.256 45.7169 128.42 45.7821C128.584 45.8474 128.733 45.9286 128.862 46.0249C128.992 46.1211 129.096 46.2377 129.175 46.3725C129.254 46.5072 129.293 46.6698 129.293 46.8612C129.293 47.0815 129.246 47.2826 129.154 47.4622C129.061 47.6419 128.935 47.7959 128.775 47.9231C128.615 48.0504 128.425 48.1488 128.208 48.2183C127.991 48.2878 127.758 48.322 127.509 48.322C127.344 48.322 127.18 48.3039 127.016 48.2664C126.854 48.2301 126.697 48.1755 126.547 48.106C126.397 48.0365 126.257 47.9499 126.127 47.8494C125.998 47.7488 125.882 47.6323 125.779 47.5018C125.751 47.4686 125.738 47.4344 125.739 47.4013C125.739 47.3681 125.759 47.336 125.795 47.3071L126.047 47.0986C126.083 47.0697 126.119 47.0558 126.152 47.059C126.186 47.0622 126.217 47.0804 126.245 47.1147L126.286 47.1553C126.376 47.2537 126.478 47.3403 126.591 47.412C126.705 47.4836 126.818 47.5446 126.933 47.5916C127.047 47.6387 127.156 47.674 127.26 47.6975C127.363 47.721 127.452 47.7317 127.525 47.7317C127.654 47.7317 127.787 47.7146 127.924 47.6814C128.06 47.6483 128.184 47.5959 128.297 47.5264C128.409 47.4569 128.502 47.3692 128.575 47.2633C128.647 47.1574 128.683 47.0323 128.683 46.889C128.683 46.7692 128.647 46.6676 128.576 46.5842C128.504 46.5008 128.408 46.4281 128.287 46.366C128.166 46.304 128.024 46.2484 127.861 46.1992C127.699 46.15 127.525 46.0976 127.34 46.0431C127.084 45.9693 126.865 45.8923 126.682 45.811C126.499 45.7297 126.349 45.641 126.231 45.5426C126.113 45.4453 126.027 45.3351 125.972 45.2143C125.916 45.0934 125.888 44.9576 125.888 44.8057C125.888 44.6143 125.927 44.4389 126.005 44.2807C126.083 44.1224 126.193 43.9844 126.335 43.8689C126.478 43.7534 126.65 43.6636 126.85 43.5994C127.05 43.5353 127.276 43.5032 127.525 43.5032C127.659 43.5032 127.798 43.5203 127.942 43.5534C128.086 43.5866 128.228 43.6336 128.365 43.6935C128.502 43.7534 128.631 43.8251 128.751 43.9085C128.871 43.9919 128.975 44.0839 129.062 44.1844C129.093 44.2165 129.108 44.2496 129.109 44.2839C129.11 44.3181 129.094 44.3512 129.059 44.3833L128.833 44.5983C128.8 44.6293 128.765 44.6443 128.729 44.6421C128.694 44.64 128.662 44.6239 128.632 44.5951L128.633 44.5961Z" fill="#363636"/>
  <path d="M130.735 48.1423C130.72 48.1776 130.7 48.2065 130.672 48.2279C130.644 48.2493 130.609 48.2589 130.567 48.2589H130.228C130.13 48.2589 130.081 48.2226 130.081 48.1488C130.081 48.1338 130.081 48.122 130.082 48.1124C130.082 48.1028 130.084 48.0942 130.087 48.0857C130.089 48.0771 130.091 48.0696 130.093 48.0632L131.934 43.6903C131.938 43.6796 131.943 43.6678 131.95 43.6539C131.956 43.64 131.965 43.6272 131.976 43.6165C131.987 43.6047 132.002 43.5951 132.022 43.5866C132.043 43.578 132.07 43.5737 132.104 43.5737H132.314C132.346 43.5737 132.373 43.578 132.392 43.5866C132.413 43.5951 132.428 43.6047 132.439 43.6165C132.45 43.6283 132.458 43.6411 132.465 43.6539C132.471 43.6678 132.477 43.6796 132.481 43.6903L134.305 48.0632C134.308 48.0739 134.31 48.0846 134.312 48.0942C134.314 48.1049 134.316 48.1145 134.318 48.1242C134.321 48.1338 134.322 48.1413 134.322 48.1477C134.322 48.2215 134.273 48.2578 134.175 48.2578H133.836C133.794 48.2578 133.758 48.2471 133.731 48.2268C133.703 48.2054 133.682 48.1776 133.667 48.1413L133.316 47.274H131.076C131.002 47.4611 130.933 47.6301 130.872 47.7819C130.81 47.9338 130.765 48.0536 130.734 48.1413L130.735 48.1423ZM131.332 46.6633H133.071L132.211 44.5052L131.334 46.6633H131.332Z" fill="#363636"/>
  <path d="M134.911 43.6903C134.941 43.7705 134.982 43.8764 135.035 44.0068C135.088 44.1373 135.148 44.286 135.214 44.4485C135.28 44.6111 135.351 44.7865 135.428 44.9725C135.505 45.1586 135.582 45.3468 135.659 45.5361C135.737 45.7254 135.814 45.9115 135.889 46.0944C135.964 46.2773 136.034 46.4462 136.097 46.6024C136.161 46.7585 136.219 46.8954 136.268 47.0152C136.318 47.1349 136.357 47.228 136.385 47.2932C136.411 47.228 136.448 47.136 136.499 47.0152C136.548 46.8954 136.606 46.7574 136.669 46.6024C136.733 46.4473 136.803 46.2773 136.877 46.0944C136.952 45.9115 137.027 45.7254 137.103 45.5361C137.18 45.3468 137.256 45.1597 137.331 44.9725C137.407 44.7865 137.477 44.6121 137.543 44.4485C137.609 44.286 137.669 44.1384 137.722 44.0068C137.775 43.8753 137.817 43.7694 137.846 43.6903C137.861 43.655 137.882 43.6261 137.91 43.6047C137.937 43.5834 137.973 43.5737 138.015 43.5737H138.35C138.45 43.5737 138.5 43.6101 138.5 43.6839C138.5 43.6924 138.5 43.701 138.497 43.7095C138.495 43.7181 138.493 43.7277 138.491 43.7384C138.489 43.7491 138.486 43.7598 138.484 43.7694L136.66 48.1423C136.655 48.153 136.65 48.1648 136.644 48.1787C136.637 48.1926 136.628 48.2054 136.618 48.2161C136.607 48.2279 136.592 48.2375 136.571 48.2461C136.551 48.2546 136.524 48.2589 136.49 48.2589H136.279C136.248 48.2589 136.221 48.2546 136.201 48.2461C136.181 48.2375 136.166 48.2279 136.155 48.2161C136.144 48.2044 136.135 48.1915 136.129 48.1787C136.122 48.1648 136.117 48.153 136.113 48.1423L134.272 43.7694C134.27 43.763 134.268 43.7555 134.265 43.747C134.261 43.7299 134.259 43.7095 134.259 43.6839C134.259 43.6101 134.308 43.5737 134.406 43.5737H134.744C134.787 43.5737 134.822 43.5844 134.849 43.6047C134.878 43.6261 134.897 43.6539 134.91 43.6903H134.911Z" fill="#363636"/>
  <path d="M139.384 43.7127C139.384 43.6752 139.396 43.6421 139.421 43.6153C139.446 43.5875 139.48 43.5747 139.525 43.5747H139.857C139.894 43.5747 139.929 43.5875 139.958 43.6121C139.989 43.6378 140.003 43.671 140.003 43.7127V48.1198C140.003 48.2128 139.954 48.2588 139.856 48.2588H139.523C139.429 48.2588 139.383 48.2128 139.383 48.1198V43.7127H139.384Z" fill="#363636"/>
  <path d="M144.74 48.259C144.694 48.259 144.653 48.2354 144.619 48.1895L141.835 44.4988V48.121C141.835 48.2141 141.786 48.26 141.688 48.26H141.365C141.271 48.26 141.225 48.2141 141.225 48.121V43.7203C141.225 43.6786 141.238 43.6433 141.262 43.6166C141.287 43.5898 141.322 43.5759 141.364 43.5759H141.791C141.846 43.5759 141.891 43.5995 141.925 43.6454L144.64 47.2131V43.6925C144.653 43.6144 144.699 43.5759 144.781 43.5759H145.103C145.141 43.5759 145.176 43.5888 145.21 43.6134C145.242 43.639 145.26 43.6722 145.26 43.7139V48.121C145.26 48.2141 145.208 48.26 145.103 48.26H144.739L144.74 48.259Z" fill="#363636"/>
  <path d="M149.657 46.3288C149.657 46.2358 149.703 46.1898 149.797 46.1898H150.126C150.164 46.1898 150.199 46.2016 150.228 46.2262C150.258 46.2508 150.272 46.285 150.272 46.3288V47.7394C150.272 47.7651 150.267 47.7886 150.256 47.81C150.245 47.8325 150.227 47.8506 150.202 47.8656L150.176 47.8849C149.976 48.0282 149.756 48.1383 149.515 48.2143C149.274 48.2902 149.016 48.3298 148.737 48.3298C148.512 48.3298 148.294 48.3009 148.088 48.2442C147.88 48.1875 147.686 48.1062 147.507 48.0014C147.327 47.8966 147.163 47.7704 147.016 47.6239C146.868 47.4774 146.741 47.3159 146.636 47.1384C146.531 46.9609 146.449 46.7695 146.392 46.5641C146.335 46.3588 146.305 46.1449 146.305 45.9225C146.305 45.7 146.335 45.4893 146.392 45.2851C146.449 45.0808 146.531 44.8894 146.637 44.7108C146.743 44.5322 146.871 44.3686 147.019 44.2221C147.167 44.0745 147.331 43.9483 147.51 43.8435C147.69 43.7387 147.883 43.6563 148.091 43.5986C148.299 43.5408 148.515 43.512 148.74 43.512C149.002 43.512 149.254 43.5515 149.496 43.6307C149.738 43.7098 149.965 43.8221 150.175 43.9697C150.199 43.9868 150.217 44.006 150.232 44.0285C150.247 44.051 150.255 44.0734 150.255 44.0959C150.255 44.1258 150.246 44.1504 150.229 44.1718L150.06 44.4499C150.025 44.5001 149.987 44.5258 149.949 44.5258C149.934 44.5258 149.918 44.5226 149.899 44.5151C149.881 44.5076 149.86 44.4958 149.836 44.4787C149.683 44.3718 149.516 44.2873 149.337 44.2242C149.157 44.1622 148.965 44.1312 148.76 44.1312C148.496 44.1312 148.252 44.1804 148.028 44.2798C147.803 44.3782 147.609 44.5108 147.444 44.6776C147.28 44.8434 147.15 45.0348 147.057 45.2519C146.964 45.469 146.916 45.6947 146.916 45.9299C146.916 46.1802 146.964 46.4144 147.06 46.6315C147.157 46.8497 147.285 47.0379 147.45 47.1994C147.613 47.3598 147.804 47.487 148.022 47.579C148.239 47.671 148.472 47.718 148.719 47.718C148.874 47.718 149.03 47.6934 149.183 47.6443C149.338 47.5951 149.495 47.5362 149.654 47.4689V46.3299L149.657 46.3288Z" fill="#363636"/>
  <path d="M154.082 44.5961C154.052 44.5769 154.003 44.5405 153.935 44.486C153.867 44.4314 153.784 44.3758 153.684 44.3192C153.585 44.2625 153.474 44.2111 153.351 44.1662C153.228 44.1213 153.095 44.0988 152.952 44.0988C152.784 44.0988 152.64 44.1192 152.518 44.1587C152.397 44.1983 152.297 44.2518 152.219 44.3181C152.141 44.3844 152.083 44.4592 152.045 44.5416C152.008 44.625 151.988 44.7084 151.988 44.7918C151.988 44.9095 152.027 45.0089 152.106 45.0881C152.185 45.1683 152.289 45.2378 152.419 45.2966C152.549 45.3554 152.696 45.4089 152.86 45.456C153.025 45.503 153.193 45.5533 153.364 45.6057C153.535 45.6581 153.704 45.7169 153.868 45.7821C154.032 45.8474 154.181 45.9286 154.31 46.0249C154.44 46.1211 154.544 46.2377 154.623 46.3725C154.702 46.5072 154.741 46.6698 154.741 46.8612C154.741 47.0815 154.694 47.2826 154.602 47.4622C154.509 47.6419 154.383 47.7959 154.223 47.9231C154.062 48.0504 153.873 48.1488 153.656 48.2183C153.439 48.2878 153.206 48.322 152.957 48.322C152.792 48.322 152.628 48.3039 152.464 48.2664C152.302 48.2301 152.145 48.1755 151.995 48.106C151.845 48.0365 151.705 47.9499 151.575 47.8494C151.446 47.7488 151.33 47.6323 151.227 47.5018C151.199 47.4686 151.186 47.4344 151.187 47.4013C151.187 47.3681 151.207 47.336 151.243 47.3071L151.495 47.0986C151.531 47.0697 151.567 47.0558 151.6 47.059C151.634 47.0622 151.665 47.0804 151.693 47.1147L151.734 47.1553C151.824 47.2537 151.925 47.3403 152.039 47.412C152.153 47.4847 152.266 47.5446 152.381 47.5916C152.496 47.6387 152.604 47.674 152.708 47.6975C152.811 47.721 152.9 47.7317 152.973 47.7317C153.102 47.7317 153.235 47.7146 153.372 47.6814C153.508 47.6483 153.632 47.5959 153.745 47.5264C153.857 47.4569 153.95 47.3692 154.023 47.2633C154.095 47.1574 154.131 47.0323 154.131 46.889C154.131 46.7692 154.095 46.6676 154.024 46.5842C153.952 46.5008 153.856 46.4281 153.735 46.366C153.614 46.304 153.472 46.2484 153.309 46.1992C153.147 46.15 152.973 46.0976 152.788 46.0431C152.532 45.9693 152.313 45.8923 152.13 45.811C151.947 45.7297 151.797 45.641 151.679 45.5426C151.561 45.4453 151.475 45.3351 151.42 45.2143C151.364 45.0934 151.336 44.9576 151.336 44.8057C151.336 44.6143 151.375 44.4389 151.453 44.2807C151.531 44.1224 151.641 43.9844 151.783 43.8689C151.926 43.7534 152.098 43.6636 152.298 43.5994C152.498 43.5353 152.724 43.5032 152.973 43.5032C153.107 43.5032 153.246 43.5203 153.39 43.5534C153.535 43.5866 153.676 43.6336 153.813 43.6935C153.95 43.7534 154.079 43.8251 154.199 43.9085C154.319 43.9919 154.423 44.0839 154.51 44.1844C154.541 44.2165 154.556 44.2496 154.557 44.2839C154.558 44.3181 154.542 44.3512 154.507 44.3833L154.281 44.5983C154.248 44.6293 154.213 44.6443 154.177 44.6421C154.143 44.64 154.11 44.6239 154.08 44.5951L154.082 44.5961Z" fill="#363636"/>
  <path d="M156.417 48.259C156.417 48.429 156.384 48.5809 156.317 48.7135C156.249 48.8461 156.162 48.9413 156.054 49.0001H156.013C155.989 49.0001 155.97 48.9915 155.955 48.9744L155.837 48.8611C155.818 48.844 155.808 48.8215 155.808 48.7916C155.808 48.7702 155.817 48.7498 155.835 48.7285C155.854 48.7071 155.873 48.6825 155.896 48.6547C155.919 48.6258 155.938 48.5937 155.956 48.5584C155.975 48.5231 155.983 48.4804 155.983 48.4322V48.3285C155.983 48.3071 155.978 48.2921 155.966 48.2825C155.954 48.2729 155.941 48.2654 155.926 48.259C155.849 48.259 155.808 48.2226 155.802 48.1488V47.7959C155.802 47.7542 155.816 47.72 155.843 47.6954C155.871 47.6697 155.903 47.658 155.942 47.658H156.271C156.318 47.658 156.354 47.6708 156.379 47.6975C156.405 47.7243 156.417 47.7574 156.417 47.797V48.2611V48.259Z" fill="#363636"/>
  <path d="M163.55 43.9682C163.574 43.9853 163.593 44.0045 163.608 44.027C163.623 44.0495 163.63 44.0719 163.63 44.0944C163.63 44.1243 163.622 44.1489 163.605 44.1703L163.436 44.4484C163.4 44.4986 163.362 44.5243 163.324 44.5243C163.309 44.5243 163.293 44.5211 163.275 44.5136C163.256 44.5061 163.236 44.4943 163.212 44.4772C163.058 44.3703 162.897 44.2879 162.729 44.2313C162.56 44.1746 162.381 44.1414 162.194 44.1307C161.92 44.1307 161.667 44.1799 161.435 44.2772C161.204 44.3756 161.003 44.5061 160.834 44.6719C160.665 44.8366 160.532 45.028 160.437 45.2461C160.341 45.4643 160.293 45.6932 160.293 45.9359C160.293 46.1926 160.342 46.43 160.44 46.6471C160.538 46.8653 160.669 47.0524 160.834 47.2107C160.998 47.3679 161.19 47.4909 161.408 47.5797C161.627 47.6684 161.855 47.7123 162.096 47.7123C162.183 47.7123 162.27 47.7058 162.358 47.693C162.445 47.6802 162.534 47.6588 162.624 47.6278C162.714 47.5978 162.809 47.5583 162.906 47.5112C163.003 47.4642 163.108 47.4053 163.218 47.3358C163.258 47.3123 163.292 47.3016 163.318 47.3016C163.356 47.3016 163.391 47.3283 163.423 47.3807L163.605 47.677C163.62 47.7037 163.627 47.7294 163.627 47.7529C163.627 47.8032 163.601 47.8438 163.55 47.8727C163.35 48.016 163.131 48.1283 162.89 48.2085C162.65 48.2898 162.39 48.3304 162.111 48.3304C161.886 48.3304 161.669 48.3015 161.462 48.2448C161.255 48.1882 161.061 48.1069 160.881 48.0021C160.702 47.8973 160.538 47.7711 160.39 47.6246C160.242 47.4781 160.116 47.3166 160.011 47.139C159.906 46.9615 159.824 46.7701 159.766 46.5648C159.709 46.3594 159.68 46.1455 159.68 45.9231C159.68 45.7007 159.709 45.4889 159.766 45.2847C159.824 45.0793 159.906 44.8879 160.012 44.7093C160.118 44.5307 160.246 44.3671 160.394 44.2206C160.542 44.073 160.706 43.9479 160.887 43.8431C161.067 43.7382 161.262 43.658 161.469 43.6003C161.675 43.5425 161.893 43.5137 162.118 43.5137C162.384 43.5137 162.636 43.5522 162.873 43.6302C163.111 43.7083 163.337 43.8217 163.549 43.9714L163.55 43.9682Z" fill="#363636"/>
  <path d="M166.603 43.5107C166.826 43.5107 167.043 43.5396 167.249 43.5963C167.457 43.653 167.65 43.7343 167.83 43.8391C168.009 43.9439 168.174 44.0701 168.323 44.2155C168.472 44.362 168.599 44.5246 168.705 44.7042C168.81 44.8839 168.892 45.0775 168.95 45.2828C169.009 45.4892 169.038 45.7031 169.038 45.9266C169.038 46.1501 169.009 46.3608 168.951 46.565C168.894 46.7704 168.812 46.9618 168.706 47.1393C168.6 47.3169 168.472 47.4794 168.324 47.6248C168.176 47.7703 168.012 47.8965 167.831 48.0002C167.65 48.104 167.456 48.1852 167.247 48.2419C167.038 48.2986 166.822 48.3275 166.596 48.3275C166.37 48.3275 166.154 48.2986 165.947 48.2419C165.739 48.1852 165.546 48.104 165.366 47.9991C165.187 47.8943 165.022 47.7682 164.875 47.6216C164.727 47.4751 164.601 47.3136 164.496 47.1361C164.391 46.9586 164.309 46.7672 164.251 46.5618C164.194 46.3565 164.165 46.1426 164.165 45.9202C164.165 45.6977 164.194 45.486 164.251 45.2817C164.309 45.0764 164.391 44.885 164.497 44.7064C164.603 44.5278 164.73 44.3641 164.879 44.2176C165.027 44.0701 165.191 43.9449 165.372 43.8401C165.552 43.7353 165.747 43.6551 165.953 43.5974C166.161 43.5396 166.377 43.5107 166.602 43.5107H166.603ZM164.779 45.9116C164.779 46.0774 164.801 46.2367 164.844 46.3897C164.887 46.5426 164.949 46.6848 165.028 46.8185C165.107 46.9522 165.201 47.073 165.311 47.1832C165.421 47.2933 165.545 47.3864 165.68 47.4644C165.815 47.5425 165.96 47.6024 166.114 47.6462C166.268 47.689 166.429 47.7104 166.597 47.7104C166.765 47.7104 166.924 47.689 167.079 47.6462C167.234 47.6035 167.379 47.5425 167.513 47.4644C167.647 47.3864 167.769 47.2933 167.88 47.1832C167.99 47.0741 168.085 46.9522 168.163 46.8185C168.241 46.6848 168.302 46.5415 168.347 46.3897C168.391 46.2378 168.413 46.0774 168.413 45.9116C168.413 45.6635 168.365 45.4304 168.269 45.2133C168.174 44.9951 168.044 44.8058 167.88 44.6443C167.716 44.4829 167.524 44.3545 167.303 44.2593C167.083 44.1652 166.848 44.1171 166.597 44.1171C166.429 44.1171 166.268 44.1385 166.114 44.1813C165.959 44.2241 165.815 44.285 165.68 44.3631C165.545 44.4411 165.422 44.5342 165.311 44.6443C165.2 44.7545 165.106 44.8743 165.028 45.0069C164.949 45.1395 164.888 45.2828 164.844 45.4357C164.801 45.5897 164.779 45.748 164.779 45.9116Z" fill="#363636"/>
  <path d="M170.677 46.322C170.677 46.522 170.706 46.7081 170.765 46.8803C170.823 47.0524 170.91 47.2022 171.023 47.3294C171.137 47.4567 171.275 47.5561 171.44 47.6289C171.603 47.7016 171.791 47.738 172.001 47.738C172.226 47.738 172.423 47.7016 172.591 47.6278C172.759 47.554 172.899 47.4535 173.008 47.3262C173.117 47.199 173.199 47.0492 173.253 46.8771C173.307 46.7049 173.334 46.5199 173.334 46.322V43.7126C173.334 43.6752 173.349 43.642 173.378 43.6153C173.407 43.5885 173.442 43.5746 173.485 43.5746H173.791C173.831 43.5746 173.869 43.5875 173.902 43.6121C173.936 43.6377 173.953 43.6709 173.953 43.7126V46.4065C173.953 46.691 173.902 46.9508 173.799 47.1872C173.698 47.4235 173.557 47.6267 173.38 47.7957C173.203 47.9647 172.995 48.0973 172.758 48.1914C172.521 48.2855 172.268 48.3336 172 48.3336C171.732 48.3336 171.48 48.2834 171.244 48.1818C171.008 48.0812 170.801 47.9422 170.623 47.7668C170.446 47.5914 170.305 47.3872 170.204 47.153C170.102 46.9198 170.05 46.6707 170.05 46.4054V43.7115C170.05 43.6805 170.062 43.6495 170.087 43.6185C170.112 43.5875 170.144 43.5725 170.184 43.5725H170.526C170.557 43.5725 170.591 43.5864 170.625 43.6131C170.659 43.641 170.676 43.673 170.676 43.7105V46.3199L170.677 46.322Z" fill="#363636"/>
  <path d="M175.112 43.7256C175.112 43.6251 175.161 43.5737 175.259 43.5737H176.845C177.056 43.5737 177.25 43.6122 177.43 43.6903C177.61 43.7684 177.765 43.8742 177.897 44.0068C178.029 44.1405 178.132 44.2956 178.206 44.4742C178.281 44.6517 178.318 44.8399 178.318 45.0378C178.318 45.2356 178.281 45.4153 178.208 45.5896C178.134 45.7639 178.032 45.9179 177.902 46.0516C177.771 46.1853 177.616 46.2912 177.439 46.3703C177.261 46.4494 177.068 46.489 176.86 46.489H175.728V48.1199C175.728 48.2129 175.681 48.2589 175.587 48.2589H175.252C175.158 48.2589 175.111 48.2129 175.111 48.1199V43.7256H175.112ZM177.703 45.0314C177.703 44.9201 177.68 44.8132 177.635 44.7095C177.591 44.6068 177.529 44.5159 177.452 44.4368C177.374 44.3576 177.283 44.2945 177.179 44.2475C177.075 44.2004 176.963 44.1769 176.844 44.1769H175.727V45.8869H176.844C176.958 45.8869 177.068 45.8634 177.173 45.8174C177.278 45.7714 177.368 45.7083 177.447 45.6302C177.526 45.5511 177.588 45.4602 177.634 45.3575C177.681 45.2549 177.703 45.1458 177.703 45.0324V45.0314Z" fill="#363636"/>
  <path d="M181.665 43.5107C181.888 43.5107 182.104 43.5396 182.311 43.5963C182.518 43.653 182.712 43.7343 182.891 43.8391C183.071 43.9439 183.235 44.0701 183.385 44.2155C183.534 44.362 183.66 44.5246 183.766 44.7042C183.871 44.8839 183.953 45.0775 184.012 45.2828C184.07 45.4892 184.099 45.7031 184.099 45.9266C184.099 46.1501 184.07 46.3608 184.013 46.565C183.956 46.7704 183.873 46.9618 183.767 47.1393C183.661 47.3169 183.534 47.4794 183.386 47.6248C183.237 47.7703 183.073 47.8965 182.892 48.0002C182.712 48.104 182.517 48.1852 182.309 48.2419C182.1 48.2986 181.883 48.3275 181.657 48.3275C181.431 48.3275 181.215 48.2986 181.009 48.2419C180.801 48.1852 180.607 48.104 180.428 47.9991C180.248 47.8943 180.084 47.7682 179.937 47.6216C179.789 47.4751 179.662 47.3136 179.557 47.1361C179.452 46.9586 179.37 46.7672 179.313 46.5618C179.256 46.3565 179.226 46.1426 179.226 45.9202C179.226 45.6977 179.256 45.486 179.313 45.2817C179.37 45.0764 179.452 44.885 179.558 44.7064C179.664 44.5278 179.792 44.3641 179.94 44.2176C180.088 44.0701 180.253 43.9449 180.433 43.8401C180.614 43.7353 180.808 43.6551 181.015 43.5974C181.223 43.5396 181.439 43.5107 181.664 43.5107H181.665ZM179.841 45.9116C179.841 46.0774 179.862 46.2367 179.905 46.3897C179.949 46.5426 180.01 46.6848 180.089 46.8185C180.168 46.9522 180.262 47.073 180.373 47.1832C180.483 47.2933 180.606 47.3864 180.741 47.4644C180.877 47.5425 181.022 47.6024 181.175 47.6462C181.33 47.689 181.491 47.7104 181.659 47.7104C181.826 47.7104 181.985 47.689 182.141 47.6462C182.296 47.6035 182.44 47.5425 182.575 47.4644C182.709 47.3864 182.831 47.2933 182.941 47.1832C183.051 47.0741 183.147 46.9522 183.224 46.8185C183.302 46.6848 183.364 46.5415 183.408 46.3897C183.453 46.2378 183.474 46.0774 183.474 45.9116C183.474 45.6635 183.427 45.4304 183.33 45.2133C183.235 44.9951 183.106 44.8058 182.941 44.6443C182.778 44.4829 182.585 44.3545 182.365 44.2593C182.144 44.1652 181.909 44.1171 181.659 44.1171C181.491 44.1171 181.33 44.1385 181.175 44.1813C181.02 44.2241 180.877 44.285 180.741 44.3631C180.606 44.4411 180.484 44.5342 180.373 44.6443C180.261 44.7545 180.167 44.8743 180.089 45.0069C180.01 45.1395 179.95 45.2828 179.905 45.4357C179.862 45.5897 179.841 45.748 179.841 45.9116Z" fill="#363636"/>
  <path d="M188.693 48.259C188.647 48.259 188.606 48.2354 188.572 48.1895L185.788 44.4988V48.121C185.788 48.2141 185.739 48.26 185.64 48.26H185.318C185.224 48.26 185.178 48.2141 185.178 48.121V43.7203C185.178 43.6786 185.191 43.6433 185.215 43.6166C185.24 43.5898 185.275 43.5759 185.317 43.5759H185.744C185.799 43.5759 185.844 43.5995 185.878 43.6454L188.593 47.2131V43.6925C188.606 43.6144 188.652 43.5759 188.733 43.5759H189.056C189.094 43.5759 189.129 43.5888 189.163 43.6134C189.195 43.639 189.213 43.6722 189.213 43.7139V48.121C189.213 48.2141 189.161 48.26 189.056 48.26H188.692L188.693 48.259Z" fill="#363636"/>
  <path d="M192.612 43.7256C192.612 43.6251 192.66 43.5737 192.759 43.5737H194.249C194.476 43.5737 194.693 43.6015 194.9 43.6561C195.107 43.7106 195.298 43.7887 195.474 43.8892C195.651 43.9897 195.811 44.1117 195.952 44.255C196.095 44.3983 196.216 44.5565 196.318 44.7298C196.418 44.903 196.497 45.0902 196.553 45.2912C196.608 45.4923 196.636 45.7019 196.636 45.9211C196.636 46.1404 196.608 46.3457 196.551 46.5446C196.495 46.7435 196.415 46.9296 196.312 47.1029C196.21 47.2761 196.085 47.4344 195.94 47.5755C195.796 47.7178 195.635 47.8386 195.459 47.9402C195.283 48.0407 195.093 48.1199 194.888 48.1755C194.684 48.2311 194.471 48.2589 194.25 48.2589H192.76C192.722 48.2589 192.687 48.2504 192.658 48.2322C192.628 48.214 192.614 48.1787 192.614 48.1263V43.7256H192.612ZM194.233 47.6568C194.492 47.6568 194.731 47.6098 194.951 47.5146C195.17 47.4194 195.359 47.2921 195.518 47.1317C195.675 46.9713 195.8 46.7831 195.89 46.5681C195.979 46.3532 196.024 46.1265 196.024 45.8869C196.024 45.6302 195.977 45.3971 195.883 45.1864C195.789 44.9758 195.662 44.7961 195.501 44.6474C195.34 44.4977 195.153 44.3822 194.938 44.2999C194.723 44.2175 194.493 44.1769 194.249 44.1769H193.225V47.6568H194.233Z" fill="#363636"/>
  <path d="M200.928 43.5736C201.025 43.5736 201.075 43.6238 201.075 43.7254V44.0377C201.075 44.0773 201.063 44.1126 201.038 44.1414C201.014 44.1714 200.976 44.1853 200.922 44.1853H198.35V45.4814H200.372C200.41 45.4814 200.444 45.4921 200.471 45.5146C200.499 45.5371 200.512 45.5745 200.512 45.6269V45.9488C200.512 45.9862 200.5 46.0204 200.477 46.0493C200.453 46.0793 200.419 46.0932 200.372 46.0932H198.35V47.6449H200.935C201.032 47.6449 201.082 47.6941 201.082 47.7936V48.1187C201.082 48.2117 201.035 48.2577 200.941 48.2577H197.872C197.778 48.2577 197.731 48.2139 197.731 48.1251V43.718C197.731 43.6217 197.778 43.5725 197.872 43.5725H200.928V43.5736Z" fill="#363636"/>
  <path d="M204.878 47.6471C204.916 47.6471 204.949 47.6599 204.976 47.6867C205.004 47.7134 205.017 47.7498 205.017 47.7958V48.1209C205.017 48.1583 205.004 48.1915 204.979 48.2182C204.953 48.246 204.92 48.2588 204.878 48.2588H202.165C202.071 48.2588 202.025 48.2128 202.025 48.1198V43.7127C202.025 43.6752 202.038 43.6421 202.063 43.6153C202.089 43.5875 202.124 43.5747 202.171 43.5747H202.5C202.54 43.5747 202.573 43.5865 202.6 43.6089C202.627 43.6325 202.64 43.6667 202.64 43.7127V47.6471H204.877H204.878Z" fill="#363636"/>
  <path d="M205.873 43.7127C205.873 43.6752 205.885 43.6421 205.909 43.6153C205.934 43.5875 205.969 43.5747 206.013 43.5747H206.345C206.383 43.5747 206.418 43.5875 206.447 43.6121C206.477 43.6378 206.491 43.671 206.491 43.7127V48.1198C206.491 48.2128 206.443 48.2588 206.344 48.2588H206.012C205.918 48.2588 205.872 48.2128 205.872 48.1198V43.7127H205.873Z" fill="#363636"/>
  <path d="M210.905 46.3288C210.905 46.2358 210.951 46.1898 211.045 46.1898H211.374C211.412 46.1898 211.447 46.2016 211.476 46.2262C211.506 46.2508 211.52 46.285 211.52 46.3288V47.7394C211.52 47.7651 211.515 47.7886 211.504 47.81C211.493 47.8325 211.475 47.8506 211.45 47.8656L211.424 47.8849C211.224 48.0282 211.004 48.1383 210.763 48.2143C210.522 48.2902 210.263 48.3298 209.984 48.3298C209.759 48.3298 209.542 48.3009 209.335 48.2442C209.128 48.1875 208.934 48.1062 208.755 48.0014C208.575 47.8966 208.411 47.7704 208.264 47.6239C208.116 47.4774 207.989 47.3159 207.884 47.1384C207.779 46.9609 207.697 46.7695 207.64 46.5641C207.582 46.3588 207.553 46.1449 207.553 45.9225C207.553 45.7 207.582 45.4893 207.64 45.2851C207.697 45.0808 207.779 44.8894 207.885 44.7108C207.991 44.5322 208.119 44.3686 208.267 44.2221C208.415 44.0745 208.578 43.9483 208.758 43.8435C208.938 43.7387 209.131 43.6563 209.339 43.5986C209.546 43.5408 209.763 43.512 209.988 43.512C210.249 43.512 210.501 43.5515 210.744 43.6307C210.986 43.7098 211.213 43.8221 211.423 43.9697C211.447 43.9868 211.465 44.006 211.48 44.0285C211.495 44.051 211.503 44.0734 211.503 44.0959C211.503 44.1258 211.494 44.1504 211.477 44.1718L211.308 44.4499C211.272 44.5001 211.235 44.5258 211.197 44.5258C211.182 44.5258 211.165 44.5226 211.147 44.5151C211.129 44.5076 211.108 44.4958 211.084 44.4787C210.931 44.3718 210.764 44.2873 210.585 44.2242C210.405 44.1622 210.213 44.1312 210.008 44.1312C209.744 44.1312 209.5 44.1804 209.276 44.2798C209.051 44.3782 208.856 44.5108 208.692 44.6776C208.528 44.8434 208.398 45.0348 208.305 45.2519C208.212 45.469 208.164 45.6947 208.164 45.9299C208.164 46.1802 208.212 46.4144 208.308 46.6315C208.404 46.8497 208.533 47.0379 208.697 47.1994C208.861 47.3598 209.052 47.487 209.27 47.579C209.487 47.671 209.719 47.718 209.967 47.718C210.122 47.718 210.277 47.6934 210.431 47.6443C210.586 47.5951 210.742 47.5362 210.901 47.4689V46.3299L210.905 46.3288Z" fill="#363636"/>
  <path d="M215.913 43.7127C215.913 43.6752 215.926 43.6421 215.951 43.6153C215.977 43.5875 216.01 43.5747 216.052 43.5747H216.375C216.413 43.5747 216.448 43.5875 216.48 43.6121C216.511 43.6378 216.527 43.671 216.527 43.7127V48.1198C216.527 48.2128 216.476 48.2588 216.374 48.2588H216.051C215.957 48.2588 215.911 48.2128 215.911 48.1198V46.0943H213.221V48.1198C213.221 48.2128 213.17 48.2588 213.068 48.2588H212.745C212.651 48.2588 212.605 48.2128 212.605 48.1198V43.7127C212.605 43.6752 212.618 43.6421 212.643 43.6153C212.667 43.5886 212.702 43.5747 212.744 43.5747H213.073C213.111 43.5747 213.145 43.5886 213.175 43.6153C213.205 43.6432 213.219 43.6752 213.219 43.7127V45.4826H215.909V43.7127H215.913Z" fill="#363636"/>
  <path d="M220.816 43.5737C220.854 43.5737 220.889 43.5855 220.92 43.6079C220.952 43.6315 220.969 43.6657 220.973 43.7117V44.0304C220.973 44.0721 220.96 44.1084 220.935 44.1395C220.909 44.1705 220.87 44.1854 220.817 44.1854H219.49V48.1135C219.49 48.1509 219.477 48.1851 219.453 48.214C219.427 48.2439 219.391 48.2578 219.344 48.2578H219.022C218.984 48.2578 218.95 48.2439 218.921 48.2172C218.89 48.1905 218.876 48.1552 218.876 48.1135V44.1854H217.543C217.501 44.1854 217.465 44.1726 217.438 44.148C217.41 44.1223 217.397 44.0838 217.397 44.0314V43.7128C217.397 43.671 217.411 43.6368 217.438 43.6122C217.465 43.5866 217.501 43.5748 217.543 43.5748H220.82L220.816 43.5737Z" fill="#363636"/>
  <path d="M222.472 48.1198C222.472 48.2128 222.426 48.2588 222.332 48.2588H222.003C221.905 48.2588 221.856 48.2128 221.856 48.1198V47.7947C221.856 47.753 221.869 47.7188 221.896 47.6942C221.923 47.6685 221.956 47.6567 221.996 47.6567H222.325C222.372 47.6567 222.408 47.6696 222.433 47.6963C222.459 47.723 222.471 47.7562 222.471 47.7958V48.1209L222.472 48.1198ZM221.888 43.441C221.888 43.348 221.937 43.302 222.035 43.302H222.357C222.4 43.302 222.435 43.3138 222.462 43.3384C222.49 43.363 222.503 43.3961 222.503 43.441V46.8418C222.503 46.9349 222.455 46.9809 222.356 46.9809H222.034C221.996 46.9809 221.962 46.9691 221.932 46.9456C221.902 46.922 221.888 46.8878 221.888 46.8418V43.441Z" fill="#363636"/>
</svg>