<svg xmlns="http://www.w3.org/2000/svg" width="188" height="37" viewBox="0 0 188 37" fill="none">
  <path fill-rule="evenodd" clip-rule="evenodd" d="M13.6621 6.08423C13.5379 6.33699 4.8679 23.6085 2.16326 30.5411C1.60959 29.3363 0.603516 26.7199 0.603516 26.7199C2.82145 23.1772 5.70983 18.5485 7.52109 15.685C9.46383 12.6155 13.6621 6.08504 13.6621 6.08504V6.08423Z" fill="white"/>
  <path fill-rule="evenodd" clip-rule="evenodd" d="M0 20.6467C0 20.6467 0.823148 22.9998 0.823148 23.003C4.54856 17.7791 12.1676 7.23681 12.5147 6.75391C12.2199 7.05431 1.50829 19.0001 0 20.6459V20.6467Z" fill="white"/>
  <path d="M20.3306 3.72309C20.6744 3.24665 21.0606 2.80251 21.4681 2.37532C21.6723 2.16214 21.8862 1.95864 22.1051 1.75837C22.3231 1.5573 22.5526 1.36833 22.7894 1.18745C22.9062 1.09539 23.0295 1.00979 23.1512 0.922576C23.2753 0.838593 23.3994 0.753802 23.5301 0.678702C23.6583 0.599563 23.7922 0.528501 23.9261 0.458246L24.1311 0.357304L24.3426 0.266861C24.4855 0.211141 24.6301 0.154614 24.7811 0.115852C24.8563 0.094049 24.9314 0.0746682 25.0098 0.0609402C25.0874 0.0472122 25.1633 0.0278314 25.2433 0.0221787C25.401 0.000375374 25.5618 -0.00366228 25.7235 0.00279797C25.8044 0.0108733 25.8852 0.016526 25.9661 0.0278314L26.2061 0.0795134H26.2102L26.2257 0.0859737C26.3842 0.143308 26.5483 0.224869 26.6945 0.31935C26.8423 0.414639 26.9762 0.526886 27.102 0.645593L27.2792 0.83294C27.3355 0.897542 27.3837 0.96699 27.436 1.03482L27.5127 1.13657L27.5789 1.24397L27.7095 1.46039C27.7871 1.60817 27.8524 1.7616 27.921 1.91261L28.0835 2.37936L28.2036 2.85419C28.2256 2.93333 28.2403 3.01327 28.2509 3.09322L28.2885 3.33386L28.3253 3.5737C28.3367 3.65365 28.34 3.7344 28.3473 3.81435L28.3857 4.29563C28.393 4.45633 28.389 4.61703 28.3914 4.77692C28.3898 4.93762 28.3971 5.09751 28.389 5.2574L28.3579 5.73627C28.3449 5.89535 28.3424 6.05524 28.3204 6.21352C28.2803 6.53007 28.2379 6.84582 28.1913 7.16075C28.1881 6.84178 28.1889 6.52442 28.1922 6.20787C28.1946 6.04959 28.1832 5.89132 28.1791 5.73304L28.1636 5.25983C28.1587 5.10236 28.1399 4.9457 28.1285 4.78904C28.1138 4.63237 28.1056 4.47571 28.086 4.31986L28.0215 3.85472C28.01 3.7772 28.0027 3.69968 27.9872 3.62296L27.9382 3.39443C27.9023 3.24342 27.8802 3.08837 27.8345 2.9406L27.7054 2.49645L27.5397 2.06846C27.4719 1.9328 27.4049 1.79632 27.3355 1.66308L27.2171 1.4717L27.1575 1.37641L27.0889 1.28839C27.0424 1.23025 26.9999 1.16968 26.9509 1.11396L26.7974 0.955685C26.6896 0.856358 26.5769 0.765107 26.4544 0.687584C26.3303 0.611676 26.2086 0.545459 26.0657 0.492969L26.0853 0.49943L25.8942 0.45663C25.8289 0.44694 25.7627 0.442095 25.6974 0.43402C25.5643 0.428367 25.4303 0.429174 25.2956 0.446133C25.2278 0.449363 25.1609 0.466321 25.0939 0.477626C25.0261 0.487317 24.9592 0.505082 24.893 0.523656C24.7583 0.554342 24.626 0.600371 24.4937 0.647208L24.2969 0.723923L24.1033 0.811137C23.976 0.873317 23.8469 0.934689 23.7236 1.00656C23.4737 1.14545 23.2271 1.29485 22.9895 1.45878C22.8694 1.53872 22.7527 1.62513 22.6351 1.70992L22.288 1.97317C22.0585 2.15164 21.8356 2.33818 21.6143 2.52795C21.3922 2.71772 21.1774 2.91556 20.9626 3.11422C20.7495 3.31448 20.5372 3.51637 20.3322 3.72632L20.3306 3.72309Z" fill="white"/>
  <path d="M23.8779 4.89232C24.2209 4.41668 24.608 3.97173 25.0155 3.54455C25.2196 3.33136 25.4336 3.12786 25.6524 2.9276C25.8705 2.72652 26.0999 2.53756 26.3368 2.35667C26.4535 2.26461 26.5769 2.17901 26.6985 2.0918C26.8227 2.00782 26.9468 1.92303 27.0774 1.84793C27.2048 1.76879 27.3396 1.69773 27.4735 1.62747L27.6785 1.52653L27.89 1.43609C28.0329 1.38037 28.1774 1.32384 28.3285 1.28508C28.4036 1.26408 28.4788 1.24389 28.5572 1.23097C28.6347 1.21725 28.7107 1.19786 28.7907 1.19221C28.9483 1.17122 29.1092 1.16637 29.2709 1.17283C29.3517 1.18091 29.4326 1.18656 29.5134 1.19786L29.7535 1.24955H29.7576L29.7731 1.25601C29.9315 1.31334 30.0957 1.39409 30.2418 1.48938C30.3896 1.58467 30.5236 1.69692 30.6493 1.81563L30.8265 2.00297C30.8829 2.06758 30.9311 2.13702 30.9833 2.20486L31.0609 2.3066L31.1271 2.41401L31.2577 2.62962C31.3353 2.7774 31.4006 2.93083 31.4692 3.08183L31.6317 3.54859L31.7518 4.02342C31.7738 4.10255 31.7885 4.1825 31.7991 4.26245L31.8367 4.50309L31.8734 4.74293C31.8849 4.82287 31.8881 4.90362 31.8955 4.98357L31.9339 5.46486C31.9412 5.62556 31.9371 5.78626 31.9396 5.94615C31.938 6.10604 31.9453 6.26674 31.9371 6.42663L31.9061 6.90549C31.893 7.06458 31.8906 7.22447 31.8685 7.38274C31.8285 7.6993 31.7861 8.01504 31.7395 8.32998C31.7362 8.011 31.7371 7.69364 31.7403 7.37709C31.7428 7.21882 31.7313 7.06054 31.7273 6.90226L31.7117 6.42905C31.7068 6.27158 31.6881 6.11492 31.6766 5.95826C31.6619 5.8016 31.6538 5.64494 31.6342 5.48909L31.5697 5.02395C31.5582 4.94642 31.5509 4.8689 31.5354 4.79219L31.4864 4.56365C31.4504 4.41265 31.4284 4.2576 31.3827 4.10982L31.2536 3.66568L31.0879 3.23769C31.0201 3.10202 30.9531 2.96555 30.8829 2.8315L30.7645 2.64012L30.7049 2.54483L30.6363 2.45681C30.5897 2.39947 30.5473 2.3381 30.4983 2.28238L30.3447 2.1241C30.2369 2.02478 30.1242 1.93272 30.0017 1.856C29.8776 1.78009 29.7559 1.71388 29.613 1.66139L29.6326 1.66785L29.4416 1.62505C29.3762 1.61536 29.3101 1.61051 29.2447 1.60244C29.1116 1.59678 28.9777 1.59759 28.843 1.61455C28.7752 1.61778 28.7082 1.63474 28.6413 1.64604C28.5735 1.65573 28.5065 1.6735 28.4404 1.69207C28.3056 1.72276 28.1733 1.76879 28.041 1.81563L27.8442 1.89234L27.6507 1.97955C27.5233 2.04173 27.3943 2.10311 27.2702 2.17498C27.0203 2.31306 26.7737 2.46327 26.536 2.62719C26.416 2.70714 26.2992 2.79355 26.1824 2.87834L25.8354 3.14078C25.6059 3.31925 25.383 3.50579 25.1617 3.69556C24.9395 3.88533 24.7248 4.08317 24.51 4.28183C24.2969 4.48209 24.0845 4.68478 23.8796 4.89393L23.8779 4.89232Z" fill="white"/>
  <path fill-rule="evenodd" clip-rule="evenodd" d="M38.8637 12.4818L36.6294 19.7827L38.2471 12.7644C38.0127 12.6845 37.673 12.552 37.3929 12.4608C33.6528 11.2357 21.3897 6.61505 17.7851 5.05571C17.5507 4.95396 17.3123 4.86109 17.0044 4.73674C13.0405 13.4686 9.09955 22.1487 5.1169 30.9193C12.4509 32.0458 20.8638 33.7772 27.4996 36.7198C19.0541 34.294 11.7617 32.9422 3.21826 32.1056C7.0433 22.1342 11.6057 12.5601 16.1453 2.91333C16.4663 3.05626 16.7627 3.19354 17.0616 3.32356C20.7984 4.94589 38.8179 12.4632 38.8645 12.4826L38.8637 12.4818Z" fill="white"/>
  <path d="M25.7595 14.9767C25.606 14.9275 25.4369 14.9638 25.3169 15.0704L12.2036 26.7747C11.797 27.1373 12.2706 27.7696 12.7401 27.491C15.8939 25.6272 19.3768 24.3069 22.9822 23.6084C24.0119 23.409 25.0352 23.2684 26.0126 23.388C26.0657 23.3944 26.1188 23.4049 26.1719 23.4138C26.2601 23.4275 26.3483 23.4421 26.4357 23.4606C26.532 23.48 26.6284 23.5026 26.7223 23.5285C26.7256 23.5293 26.728 23.5301 26.7313 23.5309C26.7329 23.5309 26.7337 23.5317 26.7353 23.5325C27.1984 23.6625 27.6344 23.8628 28.0036 24.1333C28.0068 24.1357 28.0101 24.1365 28.0134 24.139C28.0191 24.143 28.024 24.1479 28.0297 24.1527C28.113 24.2149 28.193 24.2811 28.269 24.3513C28.2739 24.3562 28.2796 24.361 28.2845 24.3659C28.3645 24.441 28.4404 24.5201 28.5115 24.6033C28.5115 24.6041 28.5131 24.6049 28.5139 24.6057C28.5156 24.6073 28.5172 24.6098 28.5188 24.6114C28.5254 24.6194 28.5319 24.6275 28.5376 24.6364C28.5376 24.6364 28.5376 24.6372 28.5393 24.638C28.9876 25.1847 29.2228 25.9155 29.1705 26.6165C29.1395 27.0372 28.9811 27.4361 28.7655 27.8052L28.1546 24.9804C27.877 24.6711 27.4997 24.4248 27.071 24.2488L28.0852 28.9389C28.1579 29.2749 28.5695 29.4081 28.8292 29.1796C29.5519 28.5424 30.0043 27.6356 30.0745 26.6811C30.1447 25.7266 29.8303 24.764 29.2089 24.03C29.0145 23.7998 28.7949 23.5979 28.5572 23.4219C28.3196 23.2458 28.0656 23.0964 27.8002 22.9713C27.7725 22.9584 27.7422 22.9519 27.7145 22.9398L26.0641 15.3086C26.0306 15.152 25.9146 15.0252 25.7603 14.9759L25.7595 14.9767ZM25.3422 16.2542L26.7174 22.6176C26.5198 22.5724 26.3221 22.5239 26.1229 22.4997C25.8461 22.4658 25.5692 22.4504 25.2948 22.4488L24.6709 19.5611C24.6375 19.4044 24.5215 19.2776 24.3672 19.2284C24.2136 19.1791 24.0446 19.2155 23.9245 19.322L18.9995 23.7182C17.7795 24.1155 16.5831 24.5831 15.4146 25.1137L25.3398 16.2542H25.3422ZM23.9507 20.5059L24.3802 22.4916C23.8462 22.5417 23.3203 22.6305 22.8091 22.7298C22.2031 22.8469 21.6013 22.9834 21.0043 23.1368L23.9507 20.5067V20.5059Z" fill="white"/>
  <path d="M62.0468 23.1413C61.7863 22.8837 61.5503 22.6035 61.3388 22.3039H61.0922C60.8505 22.3039 60.6333 22.1634 60.5361 21.947L55.8528 11.4951C55.7066 11.168 55.3783 10.9573 55.0166 10.9573H52.0514C51.7999 10.9573 51.5704 11.0574 51.4038 11.2221C51.2397 11.3869 51.136 11.6114 51.136 11.8625C51.136 12.364 51.5459 12.7694 52.0514 12.7694H53.9403C54.2342 12.7694 54.5021 12.9422 54.6221 13.2071L59.2401 23.5103C59.4149 23.8996 59.806 24.1523 60.2405 24.1523H63.3885C63.3526 24.1321 63.3167 24.112 63.2807 24.091C62.8316 23.8269 62.4168 23.5071 62.0468 23.1421V23.1413Z" fill="white"/>
  <path d="M61.4808 24.6602C60.8985 24.6602 60.4265 25.1269 60.4265 25.7027C60.4265 26.2784 60.8985 26.7452 61.4808 26.7452C62.063 26.7452 62.535 26.2784 62.535 25.7027C62.535 25.1269 62.063 24.6602 61.4808 24.6602Z" fill="white"/>
  <path d="M66.976 24.8968C66.7939 24.749 66.5612 24.6602 66.3072 24.6602C66.0532 24.6602 65.8319 24.7449 65.6523 24.8863C65.4089 25.0776 65.2529 25.3716 65.2529 25.7027C65.2529 26.2784 65.7249 26.7452 66.3072 26.7452C66.8894 26.7452 67.3614 26.2784 67.3614 25.7027C67.3614 25.378 67.2112 25.0881 66.976 24.8968Z" fill="white"/>
  <path d="M69.9663 22.6098C69.5033 23.0782 68.9651 23.4472 68.351 23.7161C67.7369 23.985 67.0722 24.1199 66.356 24.1199C65.8766 24.1199 65.412 24.0569 64.9629 23.9317C64.5129 23.8066 64.0915 23.6281 63.6987 23.3963C63.3059 23.1646 62.9474 22.8892 62.6241 22.5694C62.3007 22.2497 62.0222 21.8943 61.7878 21.5027C61.5535 21.111 61.373 20.6935 61.2464 20.2486C61.1198 19.8036 61.0562 19.3417 61.0562 18.8629C61.0562 18.384 61.119 17.9213 61.2464 17.4771C61.373 17.0322 61.5535 16.6155 61.7878 16.2271C62.0222 15.8387 62.3007 15.4842 62.6241 15.1644C62.9474 14.8446 63.3051 14.5708 63.6987 14.3415C64.0915 14.113 64.5121 13.9353 64.9588 13.8101C65.4055 13.685 65.8717 13.6228 66.356 13.6228C67.0722 13.6228 67.7369 13.7577 68.351 14.0266C68.9651 14.2955 69.5033 14.6645 69.9663 15.1329V14.1582C69.9663 13.924 70.0847 13.8069 70.3215 13.8069H71.1536C71.4068 13.8069 71.5334 13.924 71.5334 14.1582V23.6079C71.5334 23.7145 71.4982 23.7993 71.428 23.8639C71.3578 23.9277 71.2745 23.96 71.1773 23.96H70.337C70.2243 23.96 70.1337 23.9253 70.0667 23.8558C69.9989 23.7864 69.9655 23.704 69.9655 23.6079V22.6098H69.9663ZM70.0471 18.8637C70.0471 18.363 69.9499 17.8849 69.7564 17.4303C69.5629 16.9749 69.2991 16.5768 68.9659 16.236C68.6327 15.8952 68.2408 15.6239 67.7916 15.4212C67.3425 15.2185 66.8648 15.1175 66.3593 15.1175C65.8538 15.1175 65.3785 15.2185 64.9351 15.4212C64.4917 15.6239 64.1038 15.8952 63.773 16.236C63.4423 16.5768 63.181 16.9749 62.9907 17.4303C62.7996 17.8858 62.7041 18.3638 62.7041 18.8637C62.7041 19.3635 62.7996 19.8359 62.9907 20.2938C63.1818 20.7517 63.4423 21.1555 63.773 21.5043C64.1038 21.8532 64.4908 22.131 64.9351 22.3393C65.3785 22.5468 65.8538 22.651 66.3593 22.651C66.8648 22.651 67.3425 22.5468 67.7916 22.3393C68.2408 22.1318 68.6319 21.8532 68.9659 21.5043C69.2991 21.1555 69.5629 20.7525 69.7564 20.2938C69.9499 19.8359 70.0471 19.3595 70.0471 18.8637Z" fill="white"/>
  <path d="M75.8876 23.6087C75.8876 23.8429 75.7692 23.96 75.5324 23.96H74.7003C74.4471 23.96 74.3206 23.8429 74.3206 23.6087V11.1558C74.3206 11.0492 74.3557 10.9644 74.4259 10.8998C74.4961 10.836 74.5794 10.8037 74.6766 10.8037H75.5169C75.6296 10.8037 75.7202 10.8384 75.7872 10.9079C75.8542 10.9773 75.8885 11.0597 75.8885 11.1558V23.6087H75.8876Z" fill="white"/>
  <path d="M80.5563 11.9709C80.5563 12.205 80.4379 12.3221 80.2011 12.3221H79.369C79.1158 12.3221 78.9893 12.205 78.9893 11.9709V11.148C78.9893 11.0414 79.0244 10.9566 79.0946 10.892C79.1648 10.8282 79.2481 10.7959 79.3453 10.7959H80.1856C80.2983 10.7959 80.3889 10.829 80.4559 10.896C80.5229 10.9631 80.5572 11.0462 80.5572 11.148V11.9709H80.5563ZM80.5563 23.609C80.5563 23.8432 80.4379 23.9603 80.2011 23.9603H79.369C79.1158 23.9603 78.9893 23.8432 78.9893 23.609V14.1673C78.9893 14.0607 79.0244 13.976 79.0946 13.9114C79.1648 13.8476 79.2481 13.8153 79.3453 13.8153H80.1856C80.2983 13.8153 80.3889 13.85 80.4559 13.9194C80.5229 13.9889 80.5572 14.0712 80.5572 14.1673V23.609H80.5563Z" fill="white"/>
  <path d="M90.7338 21.6521C90.7713 21.6198 90.813 21.5867 90.8587 21.552C90.9044 21.5172 90.9526 21.4922 91.0041 21.4761C91.0555 21.4599 91.1061 21.4599 91.1576 21.4761C91.209 21.4922 91.2613 21.535 91.3152 21.6037C91.423 21.7474 91.5104 21.8645 91.5773 21.9549C91.6443 22.0454 91.6998 22.1172 91.7431 22.1705C91.7864 22.2295 91.8182 22.2715 91.8403 22.2981C91.8672 22.3409 91.8901 22.3837 91.9089 22.4257C91.9277 22.4685 91.9318 22.5145 91.9211 22.5654C91.9105 22.6163 91.8819 22.672 91.8362 22.7334C91.7905 22.7948 91.7194 22.8626 91.6223 22.9369C91.3903 23.1178 91.1494 23.2817 90.8995 23.4279C90.6488 23.574 90.3867 23.7008 90.1123 23.8074C89.8379 23.914 89.548 23.9964 89.2443 24.0553C88.9397 24.1143 88.6179 24.1433 88.279 24.1433C87.7997 24.1433 87.3366 24.0803 86.8899 23.9552C86.4433 23.83 86.0219 23.6515 85.6258 23.4198C85.2298 23.188 84.8696 22.9127 84.5438 22.5929C84.218 22.2731 83.9362 21.9194 83.6994 21.5302C83.4626 21.1417 83.2797 20.7251 83.1498 20.2801C83.0208 19.8352 82.9563 19.3733 82.9563 18.8944C82.9563 18.4155 83.0208 17.9536 83.1498 17.5087C83.2789 17.0637 83.4618 16.647 83.6994 16.2586C83.9362 15.8702 84.218 15.5157 84.5438 15.1959C84.8696 14.8761 85.2306 14.6007 85.6258 14.369C86.0219 14.1372 86.4433 13.9588 86.8899 13.8336C87.3366 13.7084 87.7997 13.6462 88.279 13.6462C88.5803 13.6462 88.8809 13.6745 89.1797 13.7302C89.4786 13.7859 89.7669 13.8635 90.0437 13.962C90.3214 14.0605 90.5819 14.1768 90.8269 14.3092C91.0719 14.4425 91.2915 14.5862 91.4851 14.7404C91.5226 14.7727 91.5667 14.8083 91.6182 14.8487C91.6696 14.8882 91.7121 14.9343 91.7472 14.9843C91.7823 15.0352 91.8052 15.0909 91.8158 15.1523C91.8264 15.2137 91.8133 15.2791 91.775 15.3477L91.1854 16.1149C91.0457 16.2958 90.884 16.2933 90.7011 16.1068C90.5557 15.9574 90.3883 15.8233 90.2005 15.703C90.0119 15.5835 89.8102 15.4793 89.5946 15.3913C89.379 15.3033 89.1552 15.2355 88.9241 15.1878C88.6922 15.1402 88.4636 15.1159 88.2374 15.1159C87.7637 15.1159 87.3056 15.2169 86.8638 15.4196C86.422 15.6223 86.0317 15.896 85.6928 16.2425C85.3539 16.5889 85.082 16.991 84.877 17.4489C84.672 17.9068 84.5699 18.3889 84.5699 18.8944C84.5699 19.3999 84.6712 19.8893 84.8729 20.3439C85.0746 20.7994 85.3457 21.1975 85.6846 21.5382C86.0235 21.879 86.4155 22.1495 86.8597 22.349C87.304 22.5485 87.7654 22.6486 88.2447 22.6486C88.5412 22.6486 88.809 22.6203 89.0483 22.5646C89.2875 22.5089 89.5056 22.4338 89.7024 22.3409C89.8992 22.2481 90.0805 22.1415 90.2479 22.0211C90.4145 21.9016 90.5762 21.7773 90.7321 21.6497L90.7338 21.6521Z" fill="white"/>
  <path d="M93.3829 18.9043C93.3829 18.1856 93.5242 17.5081 93.8075 16.8718C94.0909 16.2355 94.4731 15.6774 94.9557 15.1986C95.4383 14.7189 96.0002 14.341 96.6412 14.064C97.2822 13.787 97.9641 13.6489 98.686 13.6489C99.1654 13.6489 99.63 13.7119 100.081 13.8363C100.531 13.9614 100.952 14.1399 101.346 14.3717C101.739 14.6034 102.098 14.8788 102.42 15.1986C102.744 15.5184 103.022 15.8737 103.257 16.2653C103.492 16.657 103.672 17.0745 103.799 17.5194C103.925 17.9644 103.989 18.4263 103.989 18.9051C103.989 19.384 103.925 19.8467 103.799 20.2909C103.672 20.7358 103.492 21.1525 103.257 21.5409C103.023 21.9294 102.744 22.2839 102.42 22.6036C102.097 22.9234 101.739 23.1972 101.346 23.4265C100.952 23.6559 100.531 23.8327 100.081 23.9579C99.6308 24.083 99.1662 24.146 98.686 24.146C98.2058 24.146 97.742 24.083 97.2912 23.9579C96.8413 23.8327 96.4199 23.6559 96.0263 23.4265C95.6327 23.198 95.2742 22.9234 94.9508 22.6036C94.6274 22.2839 94.3498 21.9302 94.1179 21.5409C93.8859 21.1525 93.7055 20.7358 93.5764 20.2909C93.4474 19.8467 93.3821 19.384 93.3821 18.9051L93.3829 18.9043ZM94.99 18.9043C94.99 19.4107 95.0872 19.8895 95.2807 20.3417C95.4743 20.7948 95.738 21.1913 96.072 21.532C96.406 21.8728 96.7964 22.1442 97.243 22.3468C97.6897 22.5495 98.1691 22.6505 98.6811 22.6505C99.1931 22.6505 99.6627 22.5495 100.107 22.3468C100.551 22.1442 100.939 21.8728 101.27 21.532C101.601 21.1913 101.862 20.7948 102.053 20.3417C102.244 19.8895 102.34 19.4099 102.34 18.9043C102.34 18.3988 102.244 17.9329 102.053 17.4742C101.862 17.0163 101.601 16.6126 101.27 16.2637C100.938 15.9149 100.551 15.6371 100.107 15.4287C99.6627 15.2212 99.1874 15.117 98.6811 15.117C98.1748 15.117 97.6906 15.2212 97.243 15.4287C96.7964 15.6363 96.406 15.9149 96.072 16.2637C95.738 16.6126 95.4743 17.0155 95.2807 17.4742C95.0872 17.9321 94.99 18.4085 94.99 18.9043Z" fill="white"/>
  <path d="M113.359 22.778C113.203 22.9645 113.04 23.1309 112.871 23.277C112.701 23.4232 112.51 23.5475 112.297 23.6485C112.084 23.7494 111.843 23.827 111.575 23.8802C111.305 23.9335 110.993 23.9602 110.638 23.9602C109.976 23.9602 109.391 23.8471 108.886 23.621C108.379 23.3949 107.956 23.0856 107.613 22.6948C107.271 22.3031 107.013 21.8445 106.838 21.3171C106.663 20.7898 106.575 20.2254 106.575 19.6238V14.2004C106.575 14.0195 106.623 13.8838 106.717 13.7934C106.811 13.7029 106.931 13.6577 107.076 13.6577H107.674C107.873 13.6577 108.001 13.6981 108.058 13.7772C108.114 13.8572 108.143 13.9904 108.143 14.177V19.6246C108.143 19.9443 108.187 20.2706 108.276 20.6033C108.365 20.936 108.51 21.238 108.712 21.5101C108.913 21.7815 109.181 22.0027 109.515 22.1731C109.849 22.3435 110.258 22.4291 110.743 22.4291C111.051 22.4291 111.358 22.3742 111.669 22.2652C111.978 22.1562 112.258 21.9947 112.509 21.7823C112.76 21.5691 112.964 21.3075 113.123 20.9958C113.282 20.684 113.362 20.3239 113.362 19.9137V14.0106C113.362 13.7764 113.48 13.6593 113.717 13.6593H114.549C114.802 13.6593 114.929 13.7764 114.929 14.0106V23.4523C114.929 23.5589 114.894 23.6436 114.823 23.7082C114.753 23.772 114.67 23.8043 114.573 23.8043H113.732C113.62 23.8043 113.529 23.7696 113.462 23.7002C113.394 23.6307 113.361 23.5484 113.361 23.4523V22.7812L113.359 22.778Z" fill="white"/>
  <path d="M119.304 15.1339C119.767 14.6655 120.307 14.2965 120.921 14.0275C121.535 13.7586 122.201 13.6238 122.918 13.6238C123.403 13.6238 123.87 13.6868 124.317 13.8111C124.765 13.9363 125.185 14.1131 125.579 14.3425C125.972 14.5718 126.331 14.8456 126.654 15.1654C126.978 15.4851 127.257 15.8388 127.491 16.2281C127.726 16.6165 127.906 17.0332 128.033 17.4781C128.159 17.9231 128.223 18.385 128.223 18.8639C128.223 19.3427 128.159 19.8054 128.033 20.2496C127.906 20.6945 127.726 21.112 127.491 21.5037C127.257 21.8953 126.978 22.2506 126.654 22.5704C126.331 22.8902 125.972 23.1656 125.579 23.3973C125.185 23.6291 124.764 23.8076 124.314 23.9327C123.864 24.0579 123.398 24.1209 122.919 24.1209C122.202 24.1209 121.537 23.986 120.922 23.7171C120.308 23.4482 119.769 23.0792 119.305 22.6108V26.6848C119.305 26.7809 119.271 26.8633 119.203 26.9327C119.136 27.0021 119.046 27.0369 118.933 27.0369H118.093C117.996 27.0369 117.912 27.0046 117.842 26.9408C117.772 26.877 117.737 26.7914 117.737 26.6848V14.16C117.737 13.9258 117.863 13.8087 118.117 13.8087H118.949C119.185 13.8087 119.304 13.9258 119.304 14.16V15.1347V15.1339ZM119.223 18.8639C119.223 19.3589 119.32 19.8361 119.514 20.294C119.707 20.7519 119.971 21.1556 120.305 21.5045C120.639 21.8533 121.029 22.1311 121.476 22.3395C121.923 22.547 122.402 22.6512 122.914 22.6512C123.426 22.6512 123.896 22.547 124.34 22.3395C124.784 22.1319 125.172 21.8533 125.503 21.5045C125.834 21.1556 126.095 20.7527 126.286 20.294C126.477 19.8361 126.573 19.3597 126.573 18.8639C126.573 18.368 126.477 17.8851 126.286 17.4305C126.095 16.975 125.834 16.5769 125.503 16.2361C125.172 15.8954 124.784 15.624 124.34 15.4213C123.896 15.2187 123.42 15.1177 122.914 15.1177C122.408 15.1177 121.924 15.2187 121.476 15.4213C121.029 15.624 120.639 15.8954 120.305 16.2361C119.971 16.5769 119.707 16.975 119.514 17.4305C119.32 17.8859 119.223 18.364 119.223 18.8639Z" fill="white"/>
  <path d="M130.362 18.9043C130.362 18.1856 130.503 17.5081 130.787 16.8718C131.07 16.2355 131.452 15.6774 131.935 15.1986C132.417 14.7189 132.979 14.341 133.62 14.064C134.261 13.787 134.943 13.6489 135.665 13.6489C136.144 13.6489 136.609 13.7119 137.06 13.8363C137.51 13.9614 137.931 14.1399 138.325 14.3717C138.718 14.6034 139.077 14.8788 139.399 15.1986C139.723 15.5184 140.001 15.8737 140.236 16.2653C140.471 16.657 140.651 17.0745 140.778 17.5194C140.904 17.9644 140.968 18.4263 140.968 18.9051C140.968 19.384 140.904 19.8467 140.778 20.2909C140.651 20.7358 140.471 21.1525 140.236 21.5409C140.002 21.9294 139.723 22.2839 139.399 22.6036C139.076 22.9234 138.718 23.1972 138.325 23.4265C137.931 23.6559 137.51 23.8327 137.06 23.9579C136.61 24.083 136.145 24.146 135.665 24.146C135.185 24.146 134.721 24.083 134.27 23.9579C133.82 23.8327 133.399 23.6559 133.005 23.4265C132.612 23.198 132.253 22.9234 131.93 22.6036C131.606 22.2839 131.329 21.9302 131.097 21.5409C130.865 21.1525 130.684 20.7358 130.555 20.2909C130.426 19.8467 130.361 19.384 130.361 18.9051L130.362 18.9043ZM131.969 18.9043C131.969 19.4107 132.066 19.8895 132.26 20.3417C132.453 20.7948 132.717 21.1913 133.051 21.532C133.385 21.8728 133.775 22.1442 134.222 22.3468C134.669 22.5495 135.148 22.6505 135.66 22.6505C136.172 22.6505 136.642 22.5495 137.086 22.3468C137.53 22.1442 137.918 21.8728 138.249 21.532C138.58 21.1913 138.841 20.7948 139.032 20.3417C139.223 19.8895 139.319 19.4099 139.319 18.9043C139.319 18.3988 139.223 17.9329 139.032 17.4742C138.841 17.0163 138.58 16.6126 138.249 16.2637C137.917 15.9149 137.53 15.6371 137.086 15.4287C136.642 15.2212 136.166 15.117 135.66 15.117C135.154 15.117 134.67 15.2212 134.222 15.4287C133.775 15.6363 133.385 15.9149 133.051 16.2637C132.717 16.6126 132.453 17.0155 132.26 17.4742C132.066 17.9321 131.969 18.4085 131.969 18.9043Z" fill="white"/>
  <path d="M145.119 15.1579C145.27 14.9714 145.439 14.7889 145.628 14.6104C145.816 14.432 146.028 14.2721 146.261 14.1316C146.496 13.9902 146.755 13.8756 147.04 13.7884C147.325 13.7003 147.646 13.6567 148.002 13.6567C148.664 13.6567 149.248 13.7698 149.754 13.9959C150.26 14.222 150.684 14.5313 151.026 14.9221C151.368 15.3138 151.626 15.7725 151.802 16.2998C151.977 16.8271 152.064 17.3916 152.064 17.9932V23.4166C152.064 23.5974 152.017 23.7331 151.923 23.8236C151.829 23.914 151.709 23.9592 151.564 23.9592H150.966C150.767 23.9592 150.638 23.9196 150.582 23.8397C150.526 23.7598 150.497 23.6265 150.497 23.44V17.9924C150.497 17.6726 150.453 17.3463 150.364 17.0136C150.275 16.6809 150.13 16.3789 149.928 16.1068C149.726 15.8355 149.458 15.6142 149.124 15.4438C148.79 15.2734 148.381 15.1878 147.897 15.1878C147.59 15.1878 147.272 15.2427 146.944 15.3517C146.616 15.4608 146.317 15.6223 146.047 15.8346C145.778 16.0478 145.556 16.3111 145.381 16.6252C145.206 16.9394 145.119 17.2987 145.119 17.7033V23.6063C145.119 23.8405 145 23.9576 144.764 23.9576H143.931C143.678 23.9576 143.552 23.8405 143.552 23.6063V14.1647C143.552 14.0581 143.587 13.9733 143.657 13.9087C143.727 13.8449 143.811 13.8126 143.908 13.8126H144.748C144.861 13.8126 144.951 13.8473 145.018 13.9168C145.085 13.9862 145.12 14.0686 145.12 14.1647V15.1547L145.119 15.1579Z" fill="white"/>
  <path d="M156.226 14.8382C156.377 14.6517 156.538 14.4853 156.711 14.3392C156.883 14.193 157.076 14.0686 157.288 13.9677C157.501 13.8667 157.742 13.7892 158.011 13.7359C158.28 13.6826 158.592 13.656 158.948 13.656C159.55 13.656 160.102 13.769 160.6 13.9951C161.098 14.2213 161.526 14.5305 161.884 14.9214C162.242 15.313 162.52 15.7717 162.716 16.299C162.913 16.8264 163.011 17.3908 163.011 17.9924V23.4158C163.011 23.5967 162.964 23.7324 162.87 23.8228C162.776 23.9132 162.656 23.9585 162.511 23.9585H161.913C161.714 23.9585 161.585 23.9189 161.529 23.839C161.473 23.759 161.444 23.6258 161.444 23.4392V17.9916C161.444 17.6718 161.389 17.3456 161.278 17.0129C161.168 16.6802 161.004 16.3782 160.786 16.106C160.568 15.8347 160.296 15.6134 159.97 15.4431C159.644 15.2727 159.269 15.1871 158.843 15.1871C158.536 15.1871 158.227 15.242 157.914 15.351C157.601 15.46 157.32 15.6215 157.069 15.8339C156.819 16.0471 156.615 16.3103 156.459 16.6245C156.303 16.9386 156.225 17.2979 156.225 17.7025V23.6056C156.225 23.8398 156.107 23.9569 155.87 23.9569H155.038C154.785 23.9569 154.658 23.8398 154.658 23.6056V11.1446C154.658 11.038 154.693 10.9532 154.763 10.8886C154.834 10.8248 154.917 10.7925 155.014 10.7925H155.854C155.967 10.7925 156.058 10.8272 156.125 10.8967C156.192 10.9661 156.226 11.0485 156.226 11.1446V14.835V14.8382Z" fill="white"/>
  <path d="M172.55 22.778C172.394 22.9645 172.231 23.1309 172.062 23.277C171.892 23.4232 171.701 23.5475 171.488 23.6485C171.275 23.7494 171.034 23.827 170.766 23.8802C170.496 23.9335 170.184 23.9602 169.829 23.9602C169.167 23.9602 168.582 23.8471 168.077 23.621C167.57 23.3949 167.146 23.0856 166.804 22.6948C166.462 22.3031 166.204 21.8445 166.028 21.3171C165.854 20.7898 165.766 20.2254 165.766 19.6238V14.2004C165.766 14.0195 165.814 13.8838 165.908 13.7934C166.002 13.7029 166.122 13.6577 166.267 13.6577H166.865C167.064 13.6577 167.192 13.6981 167.249 13.7772C167.305 13.8572 167.333 13.9904 167.333 14.177V19.6246C167.333 19.9443 167.378 20.2706 167.467 20.6033C167.556 20.936 167.701 21.238 167.903 21.5101C168.104 21.7815 168.372 22.0027 168.706 22.1731C169.04 22.3435 169.449 22.4291 169.934 22.4291C170.241 22.4291 170.549 22.3742 170.86 22.2652C171.169 22.1562 171.449 21.9947 171.7 21.7823C171.951 21.5691 172.155 21.3075 172.314 20.9958C172.472 20.684 172.552 20.3239 172.552 19.9137V14.0106C172.552 13.7764 172.671 13.6593 172.908 13.6593H173.74C173.993 13.6593 174.12 13.7764 174.12 14.0106V23.4523C174.12 23.5589 174.084 23.6436 174.014 23.7082C173.944 23.772 173.861 23.8043 173.764 23.8043H172.923C172.811 23.8043 172.72 23.7696 172.653 23.7002C172.585 23.6307 172.552 23.5484 172.552 23.4523V22.7812L172.55 22.778Z" fill="white"/>
  <path d="M178.479 15.1581C178.942 14.6897 179.482 14.3207 180.096 14.0518C180.71 13.7829 181.376 13.648 182.093 13.648C182.572 13.648 183.038 13.711 183.488 13.8353C183.938 13.9605 184.359 14.139 184.753 14.3707C185.146 14.6025 185.505 14.8779 185.828 15.1977C186.152 15.5174 186.431 15.8728 186.665 16.2644C186.9 16.6561 187.08 17.0736 187.207 17.5185C187.333 17.9635 187.397 18.4254 187.397 18.9042C187.397 19.3831 187.333 19.8458 187.207 20.2899C187.08 20.7349 186.9 21.1516 186.665 21.54C186.431 21.9284 186.152 22.2829 185.828 22.6027C185.505 22.9225 185.146 23.1963 184.753 23.4256C184.359 23.6549 183.938 23.8318 183.488 23.9569C183.038 24.0821 182.572 24.1451 182.093 24.1451C181.376 24.1451 180.711 24.0119 180.096 23.7454C179.481 23.4789 178.943 23.1115 178.479 22.6431V23.6097C178.479 23.8439 178.36 23.961 178.123 23.961H177.291C177.038 23.961 176.912 23.8439 176.912 23.6097V11.1568C176.912 11.0502 176.947 10.9654 177.017 10.9008C177.087 10.837 177.17 10.8047 177.268 10.8047H178.108C178.221 10.8047 178.311 10.8394 178.378 10.9089C178.445 10.9783 178.48 11.0607 178.48 11.1568V15.1589L178.479 15.1581ZM178.398 18.9042C178.398 19.4105 178.495 19.8894 178.689 20.3416C178.882 20.7947 179.146 21.1912 179.48 21.5319C179.814 21.8727 180.204 22.144 180.651 22.3467C181.098 22.5494 181.577 22.6504 182.089 22.6504C182.601 22.6504 183.071 22.5494 183.515 22.3467C183.959 22.144 184.347 21.8727 184.678 21.5319C185.009 21.1912 185.27 20.7947 185.461 20.3416C185.652 19.8894 185.747 19.4097 185.747 18.9042C185.747 18.3987 185.652 17.9328 185.461 17.4741C185.27 17.0162 185.008 16.6124 184.678 16.2636C184.346 15.9147 183.959 15.637 183.515 15.4286C183.071 15.2211 182.595 15.1169 182.089 15.1169C181.583 15.1169 181.098 15.2211 180.651 15.4286C180.204 15.6361 179.814 15.9147 179.48 16.2636C179.146 16.6124 178.882 17.0154 178.689 17.4741C178.495 17.932 178.398 18.4084 178.398 18.9042Z" fill="white"/>
  <path d="M67.0355 35.7013H51.2666C51.1948 35.7013 51.136 35.6117 51.136 35.5011C51.136 35.3904 51.1948 35.3008 51.2666 35.3008H67.0355C67.1074 35.3008 67.1662 35.3904 67.1662 35.5011C67.1662 35.6117 67.1074 35.7013 67.0355 35.7013Z" fill="white"/>
  <path d="M187.242 35.7013H171.473C171.401 35.7013 171.342 35.6117 171.342 35.5011C171.342 35.3904 171.401 35.3008 171.473 35.3008H187.242C187.314 35.3008 187.373 35.3904 187.373 35.5011C187.373 35.6117 187.314 35.7013 187.242 35.7013Z" fill="white"/>
  <path d="M72.5952 32.9024C72.6687 32.9024 72.7062 32.9404 72.7062 33.0171V33.2529C72.7062 33.2828 72.6972 33.3094 72.6785 33.3312C72.6597 33.3538 72.6311 33.3643 72.5903 33.3643H70.6483V34.3431H72.1754C72.204 34.3431 72.2293 34.3511 72.2497 34.3681C72.271 34.385 72.2808 34.4133 72.2808 34.4529V34.6959C72.2808 34.7242 72.2718 34.75 72.2546 34.7719C72.2367 34.7945 72.2105 34.805 72.1754 34.805H70.6483V35.9767H72.5992C72.6727 35.9767 72.7103 36.0138 72.7103 36.0889V36.3344C72.7103 36.4047 72.6752 36.4394 72.6041 36.4394H70.2866C70.2155 36.4394 70.1804 36.4063 70.1804 36.3393V33.0114C70.1804 32.9388 70.2155 32.9016 70.2866 32.9016H72.5943L72.5952 32.9024Z" fill="white"/>
  <path d="M76.0453 36.3354C76.0657 36.3669 76.0738 36.3927 76.0689 36.4113C76.064 36.4307 76.042 36.4396 76.0012 36.4396H75.6468C75.6182 36.4396 75.592 36.4323 75.57 36.417C75.5471 36.4016 75.5251 36.3798 75.5022 36.3516L74.6227 35.0676L73.7481 36.3516C73.7269 36.3798 73.7057 36.4016 73.6828 36.417C73.6599 36.4323 73.6346 36.4396 73.606 36.4396H73.2492C73.2091 36.4396 73.1863 36.4299 73.1814 36.4113C73.1765 36.3919 73.1855 36.3669 73.2075 36.3354L74.3516 34.6751C74.2503 34.5273 74.1491 34.3796 74.047 34.231C73.9449 34.0824 73.8453 33.9378 73.7481 33.7965C73.6509 33.6552 73.557 33.5187 73.4664 33.3879C73.3757 33.2571 73.2908 33.136 73.2124 33.0245C73.1806 32.9769 73.17 32.9446 73.1822 32.9276C73.1944 32.9107 73.2255 32.9026 73.2753 32.9026H73.5742C73.6142 32.9026 73.646 32.9099 73.6697 32.9252C73.6934 32.9405 73.7204 32.968 73.753 33.0076L74.6227 34.2746L75.4973 33.0076C75.5292 32.968 75.5577 32.9405 75.5814 32.9252C75.6051 32.9099 75.6378 32.9026 75.6778 32.9026H75.9742C76.0257 32.9026 76.0575 32.9107 76.0698 32.9276C76.082 32.9446 76.0714 32.9769 76.0395 33.0245C75.9612 33.136 75.8762 33.2571 75.7856 33.3879C75.6949 33.5187 75.6002 33.6552 75.5022 33.7965C75.4042 33.9378 75.3046 34.0824 75.2025 34.231C75.1004 34.3796 75 34.5273 74.9004 34.6751L76.0444 36.3354H76.0453Z" fill="white"/>
  <path d="M76.8016 33.0173C76.8016 32.9413 76.8383 32.9026 76.9127 32.9026H78.1098C78.2691 32.9026 78.4161 32.9317 78.5516 32.9906C78.6872 33.0496 78.8048 33.1295 78.9044 33.2296C79.004 33.3298 79.0816 33.4477 79.1379 33.5825C79.1943 33.7174 79.2221 33.8587 79.2221 34.0081C79.2221 34.1575 79.1943 34.2932 79.1388 34.4248C79.0832 34.5564 79.0065 34.6727 78.9077 34.7736C78.8088 34.8746 78.6921 34.9545 78.5581 35.0143C78.4242 35.074 78.278 35.1039 78.1213 35.1039H77.2663V36.3354C77.2663 36.4057 77.2311 36.4404 77.1601 36.4404H76.9069C76.8359 36.4404 76.8008 36.4057 76.8008 36.3354V33.0173H76.8016ZM78.7574 34.0032C78.7574 33.9193 78.7402 33.8385 78.7068 33.7602C78.6733 33.6827 78.6267 33.614 78.5679 33.5543C78.5091 33.4945 78.4406 33.4469 78.3622 33.4113C78.2838 33.3758 78.1988 33.358 78.109 33.358H77.2654V34.6493H78.109C78.1956 34.6493 78.278 34.6315 78.3573 34.5968C78.4365 34.5621 78.5051 34.5144 78.5647 34.4555C78.6243 34.3957 78.6708 34.3271 78.706 34.2495C78.7411 34.172 78.7574 34.0897 78.7574 34.0041V34.0032Z" fill="white"/>
  <path d="M80.0248 33.0173C80.0248 32.9413 80.0599 32.9026 80.131 32.9026H81.5209C81.6817 32.9026 81.8304 32.9325 81.9692 32.9922C82.108 33.052 82.2281 33.1327 82.331 33.2353C82.4339 33.3378 82.5147 33.4574 82.5727 33.5954C82.6307 33.7335 82.6609 33.8789 82.6609 34.0347C82.6609 34.1462 82.6454 34.2528 82.6135 34.3553C82.5817 34.4579 82.5384 34.5524 82.482 34.6404C82.4257 34.7276 82.3587 34.8059 82.2795 34.8754C82.2003 34.9448 82.1129 35.0022 82.0166 35.0482L82.6527 36.337V36.3677C82.6527 36.417 82.6233 36.4412 82.5637 36.4412H82.2722C82.2223 36.4412 82.184 36.4121 82.1562 36.3532L81.578 35.1524C81.565 35.154 81.5511 35.1548 81.5356 35.1548C81.5201 35.1548 81.4988 35.1548 81.4702 35.1556C81.4417 35.1564 81.4049 35.1564 81.3584 35.1564H80.4911V36.3354C80.4911 36.4057 80.4544 36.4404 80.3801 36.4404H80.1294C80.0583 36.4404 80.0232 36.4057 80.0232 36.3354V33.0173H80.0248ZM82.1978 34.0299C82.1978 33.9427 82.1807 33.8587 82.1464 33.7771C82.1121 33.6964 82.0647 33.6245 82.0043 33.5631C81.9439 33.501 81.8728 33.4517 81.7904 33.4146C81.7079 33.3774 81.618 33.3588 81.5217 33.3588H80.4927V34.7026H81.5307C81.6254 34.7026 81.7136 34.684 81.7961 34.6477C81.8777 34.6113 81.9488 34.5621 82.0084 34.4999C82.068 34.4377 82.1146 34.3666 82.148 34.2859C82.1815 34.2051 82.1987 34.1203 82.1987 34.0307L82.1978 34.0299Z" fill="white"/>
  <path d="M85.8955 32.9024C85.969 32.9024 86.0066 32.9404 86.0066 33.0171V33.2529C86.0066 33.2828 85.9976 33.3094 85.9788 33.3312C85.96 33.3538 85.9306 33.3643 85.8906 33.3643H83.9487V34.3431H85.4758C85.5044 34.3431 85.5297 34.3511 85.5509 34.3681C85.5713 34.385 85.5819 34.4133 85.5819 34.4529V34.6959C85.5819 34.7242 85.573 34.75 85.5558 34.7719C85.5378 34.7945 85.5117 34.805 85.4766 34.805H83.9495V35.9767H85.9012C85.9747 35.9767 86.0123 36.0138 86.0123 36.0889V36.3344C86.0123 36.4047 85.9772 36.4394 85.9061 36.4394H83.5886C83.5175 36.4394 83.4824 36.4063 83.4824 36.3393V33.0114C83.4824 32.9388 83.5175 32.9016 83.5886 32.9016H85.8963L85.8955 32.9024Z" fill="white"/>
  <path d="M88.7739 33.6747C88.7511 33.6601 88.7143 33.6327 88.6629 33.5915C88.6114 33.5503 88.5486 33.5083 88.4734 33.4655C88.3991 33.4227 88.315 33.384 88.2219 33.35C88.1288 33.3161 88.0284 33.2992 87.9206 33.2992C87.794 33.2992 87.6846 33.3145 87.5931 33.3444C87.5016 33.3743 87.4265 33.4146 87.3669 33.4647C87.3073 33.5148 87.264 33.5713 87.2354 33.6335C87.2077 33.6965 87.193 33.7595 87.193 33.8224C87.193 33.9113 87.2224 33.9864 87.282 34.0461C87.3416 34.1067 87.42 34.1592 87.518 34.2036C87.616 34.248 87.727 34.2884 87.852 34.3239C87.9761 34.3594 88.1035 34.3974 88.2325 34.437C88.3615 34.4765 88.4889 34.521 88.6131 34.5702C88.7372 34.6195 88.8491 34.6808 88.9471 34.7535C89.0451 34.8262 89.1235 34.9142 89.1831 35.016C89.2427 35.1177 89.2721 35.2405 89.2721 35.385C89.2721 35.5514 89.237 35.7032 89.1675 35.8388C89.0973 35.9745 89.0018 36.0908 88.8809 36.1869C88.7601 36.283 88.6171 36.3573 88.453 36.4098C88.2889 36.4623 88.1133 36.4881 87.9255 36.4881C87.8005 36.4881 87.6764 36.4744 87.5531 36.4461C87.4306 36.4187 87.3122 36.3775 87.1987 36.325C87.0852 36.2725 86.9798 36.2071 86.8818 36.1312C86.7838 36.0553 86.6965 35.9672 86.6189 35.8687C86.5977 35.8437 86.5879 35.8179 86.5887 35.7928C86.5887 35.7678 86.6034 35.7436 86.6311 35.7218L86.8214 35.5643C86.8484 35.5425 86.8753 35.532 86.9006 35.5344C86.9259 35.5368 86.9496 35.5506 86.9708 35.5764L87.0019 35.6071C87.0697 35.6814 87.1464 35.7468 87.2322 35.8009C87.3179 35.855 87.4037 35.901 87.4902 35.9366C87.576 35.9721 87.6584 35.9987 87.7368 36.0165C87.8152 36.0343 87.8822 36.0423 87.9369 36.0423C88.0349 36.0423 88.1353 36.0294 88.2382 36.0044C88.3411 35.9794 88.435 35.9398 88.52 35.8873C88.6049 35.8348 88.6751 35.7686 88.7298 35.6886C88.7846 35.6087 88.8115 35.5142 88.8115 35.406C88.8115 35.3156 88.7846 35.2388 88.7307 35.1759C88.6768 35.1129 88.6041 35.058 88.5126 35.0111C88.4212 34.9643 88.3142 34.9223 88.1909 34.8852C88.0684 34.848 87.9369 34.8084 87.7973 34.7673C87.6045 34.7115 87.4388 34.6534 87.3008 34.592C87.1628 34.5306 87.0492 34.4636 86.9602 34.3893C86.8712 34.3158 86.8059 34.2327 86.7642 34.1414C86.7226 34.0502 86.7014 33.9476 86.7014 33.8329C86.7014 33.6884 86.7308 33.556 86.7896 33.4364C86.8484 33.3169 86.9316 33.2128 87.0386 33.1255C87.1464 33.0383 87.2763 32.9705 87.4273 32.922C87.5784 32.8736 87.7491 32.8494 87.9369 32.8494C88.0382 32.8494 88.1435 32.8623 88.2521 32.8873C88.3607 32.9124 88.4677 32.9479 88.5714 32.9931C88.6751 33.0383 88.7723 33.0924 88.8629 33.1554C88.9536 33.2184 89.032 33.2879 89.0981 33.3638C89.121 33.388 89.1324 33.413 89.1333 33.4389C89.1341 33.4647 89.1218 33.4897 89.0957 33.514L88.925 33.6763C88.8997 33.6997 88.8736 33.711 88.8466 33.7094C88.8197 33.7078 88.796 33.6957 88.7731 33.6739L88.7739 33.6747Z" fill="white"/>
  <path d="M92.1254 33.6747C92.1026 33.6601 92.0658 33.6327 92.0144 33.5915C91.9629 33.5503 91.9 33.5083 91.8249 33.4655C91.7498 33.4227 91.6665 33.384 91.5734 33.35C91.4803 33.3161 91.3798 33.2992 91.2721 33.2992C91.1455 33.2992 91.0361 33.3145 90.9446 33.3444C90.8531 33.3743 90.7772 33.4146 90.7184 33.4647C90.6596 33.5148 90.6155 33.5713 90.5869 33.6335C90.5591 33.6965 90.5444 33.7595 90.5444 33.8224C90.5444 33.9113 90.5738 33.9864 90.6335 34.0461C90.6931 34.1067 90.7715 34.1592 90.8695 34.2036C90.9675 34.248 91.0785 34.2884 91.2035 34.3239C91.3284 34.3594 91.455 34.3974 91.584 34.437C91.713 34.4765 91.8404 34.521 91.9645 34.5702C92.0887 34.6195 92.2005 34.6808 92.2985 34.7535C92.3965 34.8262 92.4749 34.9142 92.5345 35.016C92.5942 35.1177 92.6236 35.2405 92.6236 35.385C92.6236 35.5514 92.5884 35.7032 92.519 35.8388C92.4488 35.9745 92.3533 36.0908 92.2324 36.1869C92.1107 36.283 91.9686 36.3573 91.8045 36.4098C91.6403 36.4623 91.4648 36.4881 91.277 36.4881C91.152 36.4881 91.0279 36.4744 90.9046 36.4461C90.7821 36.4187 90.6637 36.3775 90.5502 36.325C90.4367 36.2725 90.3313 36.2071 90.2333 36.1312C90.1353 36.0553 90.0479 35.9672 89.9712 35.8687C89.9499 35.8437 89.9401 35.8179 89.941 35.7928C89.941 35.7678 89.9557 35.7436 89.9834 35.7218L90.1737 35.5643C90.2007 35.5425 90.2276 35.532 90.2529 35.5344C90.2782 35.5368 90.3019 35.5506 90.3231 35.5764L90.3542 35.6071C90.422 35.6814 90.4979 35.7468 90.5845 35.8009C90.6702 35.8558 90.756 35.901 90.8425 35.9366C90.9283 35.9721 91.0107 35.9987 91.0891 36.0165C91.1675 36.0343 91.2345 36.0423 91.2892 36.0423C91.3872 36.0423 91.4876 36.0294 91.5905 36.0044C91.6934 35.9794 91.7873 35.9398 91.8723 35.8873C91.9572 35.8348 92.0274 35.7686 92.0821 35.6886C92.1369 35.6087 92.1638 35.5142 92.1638 35.406C92.1638 35.3156 92.1369 35.2388 92.083 35.1759C92.0291 35.1129 91.9564 35.058 91.8649 35.0111C91.7735 34.9643 91.6665 34.9223 91.5432 34.8852C91.4207 34.848 91.2892 34.8084 91.1496 34.7673C90.9568 34.7115 90.7911 34.6534 90.6531 34.592C90.515 34.5306 90.4015 34.4636 90.3125 34.3893C90.2235 34.315 90.1582 34.2327 90.1165 34.1414C90.0749 34.0502 90.0537 33.9476 90.0537 33.8329C90.0537 33.6884 90.0831 33.556 90.1419 33.4364C90.2006 33.3169 90.2839 33.2128 90.3909 33.1255C90.4987 33.0383 90.6286 32.9705 90.7796 32.922C90.9315 32.8736 91.1014 32.8494 91.2892 32.8494C91.3905 32.8494 91.4958 32.8623 91.6052 32.8873C91.7147 32.9124 91.8208 32.9479 91.9245 32.9931C92.0282 33.0383 92.1254 33.0924 92.2161 33.1554C92.3067 33.2184 92.3851 33.2879 92.4512 33.3638C92.4741 33.388 92.4855 33.413 92.4864 33.4389C92.4864 33.4647 92.4749 33.4897 92.4488 33.514L92.2781 33.6763C92.252 33.6997 92.2267 33.711 92.1997 33.7094C92.1728 33.7078 92.1491 33.6957 92.1262 33.6739L92.1254 33.6747Z" fill="white"/>
  <path d="M97.1314 33.6747C97.1085 33.6601 97.0718 33.6327 97.0203 33.5915C96.9689 33.5503 96.906 33.5083 96.8308 33.4655C96.7565 33.4227 96.6724 33.384 96.5793 33.35C96.4862 33.3161 96.3858 33.2992 96.278 33.2992C96.1514 33.2992 96.042 33.3145 95.9505 33.3444C95.8591 33.3743 95.7839 33.4146 95.7243 33.4647C95.6647 33.5148 95.6214 33.5713 95.5929 33.6335C95.5651 33.6965 95.5504 33.7595 95.5504 33.8224C95.5504 33.9113 95.5798 33.9864 95.6394 34.0461C95.699 34.1067 95.7774 34.1592 95.8754 34.2036C95.9734 34.248 96.0845 34.2884 96.2094 34.3239C96.3335 34.3594 96.4609 34.3974 96.5899 34.437C96.719 34.4765 96.8464 34.521 96.9705 34.5702C97.0946 34.6195 97.2065 34.6808 97.3045 34.7535C97.4025 34.8262 97.4809 34.9142 97.5405 35.016C97.6001 35.1177 97.6295 35.2405 97.6295 35.385C97.6295 35.5514 97.5944 35.7032 97.525 35.8388C97.4547 35.9745 97.3592 36.0908 97.2383 36.1869C97.1175 36.283 96.9746 36.3573 96.8104 36.4098C96.6463 36.4623 96.4707 36.4881 96.2829 36.4881C96.158 36.4881 96.0338 36.4744 95.9105 36.4461C95.788 36.4187 95.6696 36.3775 95.5561 36.325C95.4426 36.2725 95.3373 36.2071 95.2393 36.1312C95.1413 36.0553 95.0539 35.9672 94.9763 35.8687C94.9551 35.8437 94.9453 35.8179 94.9461 35.7928C94.9461 35.7678 94.9608 35.7436 94.9886 35.7218L95.1788 35.5643C95.2058 35.5425 95.2327 35.532 95.258 35.5344C95.2834 35.5368 95.307 35.5506 95.3283 35.5764L95.3593 35.6071C95.4271 35.6814 95.5038 35.7468 95.5896 35.8009C95.6753 35.855 95.7611 35.901 95.8476 35.9366C95.9334 35.9721 96.0159 35.9987 96.0943 36.0165C96.1727 36.0343 96.2396 36.0423 96.2943 36.0423C96.3923 36.0423 96.4928 36.0294 96.5957 36.0044C96.6986 35.9794 96.7925 35.9398 96.8774 35.8873C96.9623 35.8348 97.0326 35.7686 97.0873 35.6886C97.142 35.6087 97.1689 35.5142 97.1689 35.406C97.1689 35.3156 97.142 35.2388 97.0881 35.1759C97.0342 35.1129 96.9615 35.058 96.87 35.0111C96.7786 34.9643 96.6716 34.9223 96.5483 34.8852C96.4258 34.848 96.2943 34.8084 96.1547 34.7673C95.962 34.7115 95.7962 34.6534 95.6582 34.592C95.5202 34.5306 95.4067 34.4636 95.3177 34.3893C95.2286 34.3158 95.1633 34.2327 95.1217 34.1414C95.08 34.0502 95.0588 33.9476 95.0588 33.8329C95.0588 33.6884 95.0882 33.556 95.147 33.4364C95.2058 33.3169 95.2891 33.2128 95.396 33.1255C95.5038 33.0383 95.6337 32.9705 95.7848 32.922C95.9358 32.8736 96.1065 32.8494 96.2943 32.8494C96.3956 32.8494 96.5009 32.8623 96.6095 32.8873C96.7182 32.9124 96.8251 32.9479 96.9288 32.9931C97.0326 33.0383 97.1297 33.0924 97.2204 33.1554C97.311 33.2184 97.3894 33.2879 97.4556 33.3638C97.4784 33.388 97.4899 33.413 97.4907 33.4389C97.4915 33.4647 97.4792 33.4897 97.4531 33.514L97.2824 33.6763C97.2571 33.6997 97.231 33.711 97.204 33.7094C97.1771 33.7078 97.1534 33.6957 97.1305 33.6739L97.1314 33.6747Z" fill="white"/>
  <path d="M98.7189 36.3524C98.7075 36.379 98.692 36.4008 98.6707 36.417C98.6495 36.4331 98.6234 36.4404 98.5915 36.4404H98.3359C98.2616 36.4404 98.2249 36.4129 98.2249 36.3572C98.2249 36.3459 98.2249 36.337 98.2257 36.3298C98.2257 36.3225 98.2273 36.316 98.2289 36.3096C98.2306 36.3031 98.2322 36.2974 98.2338 36.2926L99.6237 32.9906C99.627 32.9825 99.6311 32.9737 99.636 32.9632C99.6409 32.9527 99.6474 32.943 99.6556 32.9349C99.6637 32.926 99.6752 32.9187 99.6907 32.9123C99.7062 32.9058 99.7266 32.9026 99.7519 32.9026H99.9112C99.9349 32.9026 99.9553 32.9058 99.97 32.9123C99.9855 32.9187 99.9969 32.926 100.005 32.9349C100.013 32.9438 100.02 32.9535 100.025 32.9632C100.03 32.9737 100.034 32.9825 100.037 32.9906L101.415 36.2926C101.416 36.3007 101.418 36.3088 101.419 36.316C101.421 36.3241 101.423 36.3314 101.424 36.3386C101.426 36.3459 101.427 36.3515 101.427 36.3564C101.427 36.4121 101.39 36.4396 101.316 36.4396H101.06C101.028 36.4396 101.001 36.4315 100.981 36.4162C100.96 36.4 100.944 36.379 100.933 36.3516L100.667 35.6966H98.9761C98.9198 35.838 98.8683 35.9656 98.8218 36.0802C98.7753 36.1949 98.741 36.2853 98.7181 36.3516L98.7189 36.3524ZM99.1697 35.2355H100.483L99.8328 33.6059L99.1705 35.2355H99.1697Z" fill="white"/>
  <path d="M101.872 32.9906C101.895 33.0512 101.926 33.1311 101.966 33.2296C102.006 33.3282 102.051 33.4404 102.1 33.5631C102.15 33.6859 102.204 33.8183 102.262 33.9588C102.32 34.0993 102.378 34.2415 102.437 34.3844C102.496 34.5273 102.554 34.6678 102.61 34.8059C102.667 34.944 102.719 35.0716 102.768 35.1895C102.816 35.3074 102.859 35.4108 102.897 35.5012C102.934 35.5917 102.964 35.6619 102.985 35.7112C103.004 35.6619 103.032 35.5925 103.071 35.5012C103.108 35.4108 103.151 35.3066 103.2 35.1895C103.248 35.0724 103.3 34.944 103.356 34.8059C103.413 34.6678 103.47 34.5273 103.527 34.3844C103.585 34.2415 103.642 34.1002 103.699 33.9588C103.757 33.8183 103.81 33.6867 103.859 33.5631C103.909 33.4404 103.954 33.329 103.994 33.2296C104.034 33.1303 104.066 33.0504 104.088 32.9906C104.1 32.964 104.115 32.9422 104.136 32.926C104.157 32.9099 104.184 32.9026 104.216 32.9026H104.469C104.544 32.9026 104.582 32.93 104.582 32.9858C104.582 32.9922 104.582 32.9987 104.58 33.0051C104.578 33.0116 104.576 33.0189 104.575 33.0269C104.573 33.035 104.572 33.0431 104.57 33.0504L103.192 36.3524C103.189 36.3604 103.185 36.3693 103.18 36.3798C103.175 36.3903 103.169 36.4 103.16 36.4081C103.152 36.417 103.141 36.4242 103.125 36.4307C103.11 36.4372 103.089 36.4404 103.064 36.4404H102.905C102.881 36.4404 102.861 36.4372 102.846 36.4307C102.831 36.4242 102.819 36.417 102.811 36.4081C102.803 36.3992 102.796 36.3895 102.791 36.3798C102.786 36.3693 102.782 36.3604 102.779 36.3524L101.389 33.0504C101.388 33.0455 101.386 33.0399 101.384 33.0334C101.381 33.0205 101.379 33.0051 101.379 32.9858C101.379 32.93 101.416 32.9026 101.49 32.9026H101.746C101.778 32.9026 101.805 32.9107 101.825 32.926C101.846 32.9422 101.861 32.9631 101.871 32.9906H101.872Z" fill="white"/>
  <path d="M105.249 33.0075C105.249 32.9792 105.258 32.9542 105.277 32.934C105.296 32.913 105.322 32.9033 105.356 32.9033H105.606C105.635 32.9033 105.661 32.913 105.683 32.9316C105.706 32.951 105.716 32.976 105.716 33.0075V36.3353C105.716 36.4056 105.68 36.4403 105.605 36.4403H105.355C105.284 36.4403 105.249 36.4056 105.249 36.3353V33.0075H105.249Z" fill="white"/>
  <path d="M109.294 36.4405C109.259 36.4405 109.228 36.4227 109.203 36.388L107.1 33.6012V36.3363C107.1 36.4066 107.063 36.4413 106.989 36.4413H106.745C106.674 36.4413 106.639 36.4066 106.639 36.3363V33.0133C106.639 32.9818 106.649 32.9552 106.668 32.935C106.687 32.9148 106.713 32.9043 106.745 32.9043H107.067C107.109 32.9043 107.142 32.9221 107.168 32.9568L109.218 35.6507V32.9923C109.228 32.9334 109.263 32.9043 109.324 32.9043H109.568C109.596 32.9043 109.623 32.914 109.648 32.9326C109.673 32.9519 109.686 32.977 109.686 33.0085V36.3363C109.686 36.4066 109.647 36.4413 109.568 36.4413H109.293L109.294 36.4405Z" fill="white"/>
  <path d="M113.006 34.983C113.006 34.9127 113.041 34.878 113.112 34.878H113.361C113.389 34.878 113.415 34.8869 113.437 34.9055C113.46 34.924 113.471 34.9499 113.471 34.983V36.0481C113.471 36.0675 113.467 36.0853 113.459 36.1014C113.451 36.1184 113.437 36.1321 113.418 36.1434L113.398 36.158C113.247 36.2662 113.081 36.3493 112.899 36.4067C112.717 36.464 112.522 36.4939 112.311 36.4939C112.141 36.4939 111.977 36.4721 111.821 36.4293C111.665 36.3865 111.518 36.3251 111.383 36.246C111.247 36.1668 111.123 36.0715 111.012 35.9609C110.9 35.8503 110.805 35.7283 110.725 35.5943C110.646 35.4602 110.584 35.3157 110.541 35.1606C110.498 35.0056 110.476 34.8441 110.476 34.6761C110.476 34.5082 110.498 34.3491 110.541 34.1948C110.584 34.0406 110.646 33.8961 110.726 33.7612C110.806 33.6263 110.903 33.5028 111.015 33.3922C111.126 33.2807 111.25 33.1854 111.385 33.1063C111.521 33.0272 111.667 32.965 111.824 32.9214C111.981 32.8778 112.144 32.856 112.314 32.856C112.511 32.856 112.702 32.8858 112.885 32.9456C113.068 33.0053 113.239 33.0901 113.397 33.2016C113.415 33.2145 113.429 33.229 113.441 33.246C113.452 33.263 113.458 33.2799 113.458 33.2969C113.458 33.3195 113.451 33.3381 113.438 33.3542L113.311 33.5642C113.284 33.6021 113.255 33.6215 113.227 33.6215C113.215 33.6215 113.203 33.6191 113.189 33.6134C113.175 33.6078 113.16 33.5989 113.142 33.586C113.026 33.5052 112.9 33.4414 112.765 33.3938C112.629 33.3469 112.484 33.3235 112.329 33.3235C112.13 33.3235 111.945 33.3607 111.776 33.4358C111.607 33.5101 111.46 33.6102 111.335 33.7362C111.211 33.8613 111.113 34.0059 111.043 34.1698C110.973 34.3337 110.937 34.5041 110.937 34.6818C110.937 34.8707 110.973 35.0476 111.046 35.2115C111.118 35.3763 111.215 35.5184 111.34 35.6403C111.463 35.7615 111.607 35.8575 111.772 35.927C111.936 35.9964 112.111 36.032 112.298 36.032C112.415 36.032 112.533 36.0134 112.649 35.9763C112.765 35.9391 112.884 35.8947 113.004 35.8438V34.9838L113.006 34.983Z" fill="white"/>
  <path d="M116.348 33.6747C116.325 33.6601 116.288 33.6327 116.237 33.5915C116.185 33.5503 116.123 33.5083 116.047 33.4655C115.972 33.4227 115.889 33.384 115.796 33.35C115.703 33.3161 115.602 33.2992 115.495 33.2992C115.368 33.2992 115.259 33.3145 115.167 33.3444C115.076 33.3743 115 33.4146 114.941 33.4647C114.882 33.5148 114.838 33.5713 114.809 33.6335C114.782 33.6965 114.767 33.7595 114.767 33.8224C114.767 33.9113 114.796 33.9864 114.856 34.0461C114.916 34.1067 114.994 34.1592 115.092 34.2036C115.19 34.248 115.301 34.2884 115.425 34.3239C115.549 34.3594 115.677 34.3974 115.806 34.437C115.935 34.4765 116.062 34.521 116.186 34.5702C116.31 34.6195 116.422 34.6808 116.52 34.7535C116.618 34.8262 116.697 34.9142 116.756 35.016C116.816 35.1177 116.845 35.2405 116.845 35.385C116.845 35.5514 116.81 35.7032 116.741 35.8388C116.671 35.9745 116.575 36.0908 116.454 36.1869C116.332 36.283 116.19 36.3573 116.026 36.4098C115.862 36.4623 115.687 36.4881 115.499 36.4881C115.374 36.4881 115.25 36.4744 115.126 36.4461C115.004 36.4187 114.885 36.3775 114.772 36.325C114.658 36.2725 114.553 36.2071 114.455 36.1312C114.357 36.0553 114.27 35.9672 114.192 35.8687C114.171 35.8437 114.161 35.8179 114.162 35.7928C114.162 35.7678 114.177 35.7436 114.204 35.7218L114.395 35.5643C114.422 35.5425 114.449 35.532 114.474 35.5344C114.499 35.5368 114.523 35.5506 114.544 35.5764L114.575 35.6071C114.643 35.6814 114.719 35.7468 114.805 35.8009C114.891 35.8558 114.977 35.901 115.063 35.9366C115.15 35.9721 115.232 35.9987 115.31 36.0165C115.388 36.0343 115.455 36.0423 115.51 36.0423C115.608 36.0423 115.709 36.0294 115.811 36.0044C115.914 35.9794 116.008 35.9398 116.093 35.8873C116.178 35.8348 116.248 35.7686 116.303 35.6886C116.358 35.6087 116.385 35.5142 116.385 35.406C116.385 35.3156 116.358 35.2388 116.304 35.1759C116.25 35.1129 116.177 35.058 116.086 35.0111C115.994 34.9643 115.887 34.9223 115.764 34.8852C115.642 34.848 115.51 34.8084 115.371 34.7673C115.178 34.7115 115.012 34.6534 114.874 34.592C114.736 34.5306 114.622 34.4636 114.533 34.3893C114.444 34.3158 114.379 34.2327 114.337 34.1414C114.296 34.0502 114.275 33.9476 114.275 33.8329C114.275 33.6884 114.304 33.556 114.363 33.4364C114.422 33.3169 114.505 33.2128 114.612 33.1255C114.72 33.0383 114.85 32.9705 115.001 32.922C115.152 32.8736 115.322 32.8494 115.51 32.8494C115.611 32.8494 115.717 32.8623 115.825 32.8873C115.935 32.9124 116.041 32.9479 116.145 32.9931C116.248 33.0383 116.346 33.0924 116.436 33.1554C116.527 33.2184 116.605 33.2879 116.671 33.3638C116.694 33.388 116.706 33.413 116.706 33.4389C116.707 33.4647 116.695 33.4897 116.669 33.514L116.498 33.6763C116.473 33.6997 116.447 33.711 116.42 33.7094C116.394 33.7078 116.369 33.6957 116.346 33.6739L116.348 33.6747Z" fill="white"/>
  <path d="M118.111 36.4404C118.111 36.5688 118.086 36.6835 118.035 36.7836C117.984 36.8837 117.918 36.9556 117.837 37H117.805C117.788 37 117.774 36.9936 117.762 36.9806L117.673 36.895C117.658 36.8821 117.651 36.8652 117.651 36.8426C117.651 36.8264 117.658 36.8111 117.672 36.7949C117.685 36.7788 117.7 36.7602 117.717 36.7392C117.734 36.7174 117.749 36.6932 117.763 36.6665C117.777 36.6399 117.783 36.6076 117.783 36.5712V36.4929C117.783 36.4767 117.779 36.4654 117.77 36.4582C117.761 36.4509 117.752 36.4452 117.74 36.4404C117.682 36.4404 117.651 36.4129 117.646 36.3572V36.0907C117.646 36.0592 117.657 36.0334 117.677 36.0148C117.699 35.9955 117.723 35.9866 117.752 35.9866H118.001C118.036 35.9866 118.064 35.9963 118.082 36.0165C118.102 36.0366 118.111 36.0617 118.111 36.0916V36.442V36.4404Z" fill="white"/>
  <path d="M123.497 33.2004C123.515 33.2133 123.529 33.2278 123.541 33.2448C123.552 33.2617 123.558 33.2787 123.558 33.2957C123.558 33.3183 123.551 33.3368 123.538 33.353L123.411 33.563C123.384 33.6009 123.355 33.6203 123.327 33.6203C123.315 33.6203 123.303 33.6179 123.289 33.6122C123.275 33.6066 123.26 33.5977 123.242 33.5848C123.126 33.504 123.004 33.4418 122.877 33.399C122.749 33.3562 122.615 33.3312 122.473 33.3231C122.266 33.3231 122.075 33.3603 121.9 33.4338C121.725 33.508 121.573 33.6066 121.446 33.7317C121.319 33.8561 121.218 34.0006 121.146 34.1654C121.074 34.3301 121.038 34.5029 121.038 34.6862C121.038 34.88 121.074 35.0593 121.149 35.2232C121.222 35.388 121.322 35.5293 121.446 35.6488C121.57 35.7675 121.715 35.8604 121.88 35.9274C122.045 35.9944 122.217 36.0275 122.399 36.0275C122.465 36.0275 122.531 36.0227 122.597 36.013C122.663 36.0033 122.73 35.9872 122.798 35.9637C122.866 35.9411 122.937 35.9113 123.011 35.8757C123.084 35.8402 123.163 35.7958 123.247 35.7433C123.277 35.7255 123.302 35.7175 123.322 35.7175C123.35 35.7175 123.377 35.7376 123.401 35.7772L123.538 36.0009C123.55 36.0211 123.555 36.0405 123.555 36.0582C123.555 36.0962 123.536 36.1269 123.497 36.1487C123.346 36.2569 123.181 36.3417 122.998 36.4022C122.817 36.4636 122.621 36.4943 122.41 36.4943C122.241 36.4943 122.076 36.4725 121.92 36.4297C121.764 36.3869 121.618 36.3255 121.482 36.2464C121.346 36.1672 121.222 36.072 121.111 35.9613C120.999 35.8507 120.904 35.7288 120.825 35.5947C120.745 35.4607 120.683 35.3161 120.64 35.1611C120.597 35.006 120.575 34.8445 120.575 34.6765C120.575 34.5086 120.597 34.3487 120.64 34.1944C120.683 34.0394 120.745 33.8949 120.825 33.76C120.905 33.6251 121.002 33.5016 121.114 33.391C121.226 33.2795 121.35 33.185 121.486 33.1059C121.622 33.0268 121.769 32.9662 121.925 32.9226C122.081 32.879 122.246 32.8572 122.415 32.8572C122.616 32.8572 122.807 32.8862 122.986 32.9452C123.166 33.0041 123.337 33.0897 123.497 33.2028L123.497 33.2004Z" fill="white"/>
  <path d="M125.803 32.855C125.971 32.855 126.134 32.8768 126.29 32.9196C126.447 32.9624 126.593 33.0238 126.729 33.1029C126.864 33.182 126.988 33.2773 127.101 33.3871C127.214 33.4978 127.309 33.6205 127.389 33.7562C127.469 33.8918 127.531 34.038 127.575 34.1931C127.619 34.3489 127.641 34.5104 127.641 34.6792C127.641 34.848 127.619 35.0071 127.576 35.1613C127.532 35.3163 127.47 35.4609 127.39 35.5949C127.31 35.729 127.214 35.8517 127.102 35.9616C126.99 36.0714 126.866 36.1667 126.73 36.245C126.593 36.3233 126.446 36.3847 126.289 36.4275C126.131 36.4703 125.968 36.4921 125.797 36.4921C125.626 36.4921 125.463 36.4703 125.307 36.4275C125.15 36.3847 125.004 36.3233 124.868 36.2442C124.733 36.165 124.609 36.0698 124.498 35.9591C124.386 35.8485 124.29 35.7266 124.211 35.5925C124.132 35.4585 124.07 35.3139 124.027 35.1589C123.983 35.0038 123.961 34.8423 123.961 34.6744C123.961 34.5064 123.983 34.3465 124.027 34.1923C124.07 34.0372 124.132 33.8927 124.212 33.7578C124.292 33.6229 124.388 33.4994 124.5 33.3888C124.612 33.2773 124.736 33.1828 124.873 33.1037C125.009 33.0246 125.156 32.964 125.312 32.9204C125.469 32.8768 125.632 32.855 125.802 32.855H125.803ZM124.425 34.6679C124.425 34.7931 124.441 34.9134 124.474 35.0289C124.507 35.1443 124.553 35.2517 124.613 35.3527C124.672 35.4536 124.744 35.5449 124.827 35.628C124.91 35.7112 125.003 35.7815 125.105 35.8404C125.207 35.8994 125.317 35.9446 125.433 35.9777C125.55 36.01 125.671 36.0262 125.798 36.0262C125.924 36.0262 126.044 36.01 126.162 35.9777C126.279 35.9454 126.388 35.8994 126.489 35.8404C126.591 35.7815 126.683 35.7112 126.766 35.628C126.85 35.5457 126.921 35.4536 126.98 35.3527C127.039 35.2517 127.086 35.1435 127.119 35.0289C127.153 34.9142 127.169 34.7931 127.169 34.6679C127.169 34.4805 127.133 34.3045 127.06 34.1406C126.988 33.9758 126.89 33.8329 126.766 33.711C126.643 33.589 126.498 33.4921 126.331 33.4203C126.164 33.3492 125.987 33.3128 125.798 33.3128C125.671 33.3128 125.55 33.329 125.433 33.3613C125.316 33.3936 125.207 33.4396 125.105 33.4986C125.003 33.5575 124.911 33.6278 124.827 33.711C124.743 33.7941 124.672 33.8846 124.613 33.9847C124.553 34.0848 124.508 34.1931 124.474 34.3085C124.441 34.4248 124.425 34.5443 124.425 34.6679Z" fill="white"/>
  <path d="M128.879 34.9778C128.879 35.1288 128.901 35.2693 128.945 35.3993C128.989 35.5293 129.054 35.6424 129.14 35.7385C129.226 35.8346 129.33 35.9097 129.455 35.9646C129.578 36.0195 129.72 36.0469 129.878 36.0469C130.048 36.0469 130.197 36.0195 130.324 35.9638C130.451 35.908 130.556 35.8321 130.639 35.736C130.721 35.6399 130.783 35.5269 130.824 35.3969C130.865 35.2669 130.885 35.1272 130.885 34.9778V33.0074C130.885 32.9791 130.896 32.9541 130.918 32.9339C130.94 32.9137 130.966 32.9032 130.999 32.9032H131.23C131.26 32.9032 131.289 32.9129 131.314 32.9315C131.339 32.9509 131.352 32.9759 131.352 33.0074V35.0416C131.352 35.2564 131.314 35.4526 131.236 35.6311C131.16 35.8095 131.054 35.963 130.92 36.0906C130.786 36.2181 130.629 36.3183 130.45 36.3893C130.271 36.4604 130.08 36.4967 129.878 36.4967C129.675 36.4967 129.485 36.4588 129.307 36.3821C129.129 36.3062 128.972 36.2012 128.838 36.0687C128.704 35.9363 128.598 35.7821 128.521 35.6052C128.444 35.4292 128.405 35.241 128.405 35.0408V33.0066C128.405 32.9832 128.414 32.9598 128.433 32.9363C128.452 32.9129 128.476 32.9016 128.507 32.9016H128.765C128.788 32.9016 128.814 32.9121 128.84 32.9323C128.865 32.9533 128.878 32.9775 128.878 33.0058V34.9762L128.879 34.9778Z" fill="white"/>
  <path d="M132.228 33.0173C132.228 32.9413 132.265 32.9026 132.339 32.9026H133.536C133.695 32.9026 133.842 32.9317 133.978 32.9906C134.113 33.0496 134.231 33.1295 134.331 33.2296C134.43 33.3306 134.508 33.4477 134.564 33.5825C134.621 33.7166 134.648 33.8587 134.648 34.0081C134.648 34.1575 134.621 34.2932 134.565 34.4248C134.509 34.5564 134.433 34.6727 134.334 34.7736C134.235 34.8746 134.118 34.9545 133.984 35.0143C133.85 35.074 133.704 35.1039 133.548 35.1039H132.693V36.3354C132.693 36.4057 132.657 36.4404 132.586 36.4404H132.333C132.262 36.4404 132.227 36.4057 132.227 36.3354V33.0173H132.228ZM134.184 34.0032C134.184 33.9193 134.167 33.8385 134.133 33.7602C134.1 33.6827 134.053 33.614 133.994 33.5543C133.935 33.4945 133.867 33.4469 133.788 33.4113C133.71 33.3758 133.625 33.358 133.535 33.358H132.692V34.6493H133.535C133.622 34.6493 133.704 34.6315 133.784 34.5968C133.863 34.5621 133.931 34.5144 133.991 34.4555C134.051 34.3957 134.097 34.3271 134.132 34.2495C134.167 34.172 134.184 34.0897 134.184 34.0041V34.0032Z" fill="white"/>
  <path d="M137.176 32.855C137.344 32.855 137.507 32.8768 137.663 32.9196C137.82 32.9624 137.966 33.0238 138.102 33.1029C138.237 33.182 138.361 33.2773 138.474 33.3871C138.587 33.4978 138.682 33.6205 138.762 33.7562C138.842 33.8918 138.904 34.038 138.948 34.1931C138.992 34.3489 139.014 34.5104 139.014 34.6792C139.014 34.848 138.992 35.0071 138.949 35.1613C138.905 35.3163 138.843 35.4609 138.763 35.5949C138.683 35.729 138.587 35.8517 138.475 35.9616C138.363 36.0714 138.239 36.1667 138.103 36.245C137.966 36.3233 137.819 36.3847 137.662 36.4275C137.504 36.4703 137.341 36.4921 137.17 36.4921C136.999 36.4921 136.836 36.4703 136.68 36.4275C136.523 36.3847 136.377 36.3233 136.241 36.2442C136.106 36.165 135.982 36.0698 135.871 35.9591C135.759 35.8485 135.663 35.7266 135.584 35.5925C135.505 35.4585 135.443 35.3139 135.4 35.1589C135.356 35.0038 135.334 34.8423 135.334 34.6744C135.334 34.5064 135.356 34.3465 135.4 34.1923C135.443 34.0372 135.505 33.8927 135.585 33.7578C135.665 33.6229 135.761 33.4994 135.873 33.3888C135.985 33.2773 136.109 33.1828 136.246 33.1037C136.382 33.0246 136.529 32.964 136.685 32.9204C136.842 32.8768 137.005 32.855 137.175 32.855H137.176ZM135.798 34.6679C135.798 34.7931 135.814 34.9134 135.847 35.0289C135.88 35.1443 135.926 35.2517 135.986 35.3527C136.046 35.4536 136.117 35.5449 136.2 35.628C136.283 35.7112 136.376 35.7815 136.478 35.8404C136.58 35.8994 136.69 35.9446 136.806 35.9777C136.923 36.01 137.044 36.0262 137.171 36.0262C137.297 36.0262 137.417 36.01 137.535 35.9777C137.652 35.9454 137.761 35.8994 137.862 35.8404C137.964 35.7815 138.056 35.7112 138.139 35.628C138.223 35.5457 138.294 35.4536 138.353 35.3527C138.412 35.2517 138.459 35.1435 138.492 35.0289C138.526 34.9142 138.542 34.7931 138.542 34.6679C138.542 34.4805 138.506 34.3045 138.433 34.1406C138.361 33.9758 138.263 33.8329 138.139 33.711C138.016 33.589 137.871 33.4921 137.704 33.4203C137.537 33.3492 137.36 33.3128 137.171 33.3128C137.044 33.3128 136.923 33.329 136.806 33.3613C136.689 33.3936 136.58 33.4396 136.478 33.4986C136.376 33.5575 136.284 33.6278 136.2 33.711C136.116 33.7941 136.045 33.8846 135.986 33.9847C135.926 34.0848 135.881 34.1931 135.847 34.3085C135.814 34.4248 135.798 34.5443 135.798 34.6679Z" fill="white"/>
  <path d="M142.483 36.4405C142.448 36.4405 142.417 36.4227 142.391 36.388L140.289 33.6012V36.3363C140.289 36.4066 140.252 36.4413 140.178 36.4413H139.934C139.863 36.4413 139.828 36.4066 139.828 36.3363V33.0133C139.828 32.9818 139.838 32.9552 139.857 32.935C139.875 32.9148 139.902 32.9043 139.933 32.9043H140.256C140.298 32.9043 140.331 32.9221 140.357 32.9568L142.407 35.6507V32.9923C142.417 32.9334 142.452 32.9043 142.513 32.9043H142.757C142.785 32.9043 142.812 32.914 142.837 32.9326C142.862 32.9519 142.875 32.977 142.875 33.0085V36.3363C142.875 36.4066 142.836 36.4413 142.757 36.4413H142.482L142.483 36.4405Z" fill="white"/>
  <path d="M145.442 33.0173C145.442 32.9413 145.478 32.9026 145.553 32.9026H146.678C146.85 32.9026 147.014 32.9236 147.17 32.9648C147.326 33.0059 147.47 33.0649 147.603 33.1408C147.736 33.2167 147.857 33.3088 147.964 33.417C148.072 33.5252 148.163 33.6447 148.24 33.7755C148.316 33.9063 148.376 34.0477 148.417 34.1995C148.459 34.3513 148.48 34.5096 148.48 34.6751C148.48 34.8407 148.459 34.9957 148.417 35.1459C148.374 35.2961 148.314 35.4366 148.236 35.5674C148.159 35.6983 148.065 35.8178 147.955 35.9244C147.846 36.0318 147.725 36.123 147.592 36.1997C147.459 36.2756 147.315 36.3354 147.161 36.3774C147.006 36.4194 146.845 36.4404 146.679 36.4404H145.554C145.525 36.4404 145.499 36.4339 145.477 36.4202C145.454 36.4065 145.443 36.3798 145.443 36.3402V33.0173H145.442ZM146.666 35.9857C146.862 35.9857 147.042 35.9502 147.208 35.8783C147.374 35.8065 147.516 35.7104 147.636 35.5892C147.755 35.4681 147.849 35.326 147.917 35.1637C147.985 35.0014 148.018 34.8302 148.018 34.6493C148.018 34.4555 147.983 34.2794 147.912 34.1203C147.841 33.9613 147.745 33.8256 147.624 33.7133C147.502 33.6003 147.361 33.5131 147.198 33.4509C147.036 33.3887 146.863 33.358 146.678 33.358H145.905V35.9857H146.666Z" fill="white"/>
  <path d="M151.722 32.9024C151.795 32.9024 151.833 32.9404 151.833 33.0171V33.2529C151.833 33.2828 151.824 33.3094 151.805 33.3312C151.786 33.3538 151.757 33.3643 151.717 33.3643H149.775V34.3431H151.302C151.33 34.3431 151.356 34.3511 151.376 34.3681C151.397 34.385 151.407 34.4133 151.407 34.4529V34.6959C151.407 34.7242 151.398 34.75 151.381 34.7719C151.363 34.7945 151.337 34.805 151.302 34.805H149.775V35.9767H151.726C151.8 35.9767 151.837 36.0138 151.837 36.0889V36.3344C151.837 36.4047 151.802 36.4394 151.731 36.4394H149.414C149.343 36.4394 149.308 36.4063 149.308 36.3393V33.0114C149.308 32.9388 149.343 32.9016 149.414 32.9016H151.722V32.9024Z" fill="white"/>
  <path d="M154.704 35.9784C154.732 35.9784 154.758 35.9881 154.778 36.0083C154.799 36.0285 154.809 36.0559 154.809 36.0906V36.3361C154.809 36.3644 154.799 36.3894 154.781 36.4096C154.761 36.4306 154.736 36.4403 154.704 36.4403H152.656C152.585 36.4403 152.55 36.4056 152.55 36.3353V33.0075C152.55 32.9792 152.559 32.9542 152.578 32.934C152.598 32.913 152.625 32.9033 152.66 32.9033H152.908C152.938 32.9033 152.964 32.9122 152.984 32.9292C153.004 32.9469 153.014 32.9728 153.014 33.0075V35.9784H154.703H154.704Z" fill="white"/>
  <path d="M155.455 33.0075C155.455 32.9792 155.464 32.9542 155.483 32.934C155.501 32.913 155.528 32.9033 155.561 32.9033H155.812C155.84 32.9033 155.866 32.913 155.889 32.9316C155.911 32.951 155.922 32.976 155.922 33.0075V36.3353C155.922 36.4056 155.885 36.4403 155.811 36.4403H155.56C155.489 36.4403 155.454 36.4056 155.454 36.3353V33.0075H155.455Z" fill="white"/>
  <path d="M159.255 34.983C159.255 34.9127 159.29 34.878 159.361 34.878H159.609C159.638 34.878 159.664 34.8869 159.686 34.9055C159.709 34.924 159.719 34.9499 159.719 34.983V36.0481C159.719 36.0675 159.715 36.0853 159.707 36.1014C159.699 36.1184 159.685 36.1321 159.666 36.1434L159.647 36.158C159.496 36.2662 159.33 36.3493 159.148 36.4067C158.966 36.464 158.771 36.4939 158.56 36.4939C158.39 36.4939 158.226 36.4721 158.07 36.4293C157.913 36.3865 157.767 36.3251 157.631 36.246C157.496 36.1668 157.372 36.0715 157.261 35.9609C157.149 35.8503 157.053 35.7283 156.974 35.5943C156.895 35.4602 156.833 35.3157 156.789 35.1606C156.746 35.0056 156.724 34.8441 156.724 34.6761C156.724 34.5082 156.746 34.3491 156.789 34.1948C156.833 34.0406 156.895 33.8961 156.975 33.7612C157.055 33.6263 157.151 33.5028 157.263 33.3922C157.375 33.2807 157.498 33.1854 157.634 33.1063C157.769 33.0272 157.916 32.965 158.072 32.9214C158.229 32.8778 158.392 32.856 158.562 32.856C158.76 32.856 158.95 32.8858 159.133 32.9456C159.316 33.0053 159.488 33.0901 159.646 33.2016C159.664 33.2145 159.678 33.229 159.689 33.246C159.701 33.263 159.706 33.2799 159.706 33.2969C159.706 33.3195 159.7 33.3381 159.687 33.3542L159.559 33.5642C159.532 33.6021 159.504 33.6215 159.475 33.6215C159.464 33.6215 159.452 33.6191 159.438 33.6134C159.424 33.6078 159.408 33.5989 159.39 33.586C159.274 33.5052 159.149 33.4414 159.013 33.3938C158.878 33.3469 158.732 33.3235 158.578 33.3235C158.379 33.3235 158.194 33.3607 158.025 33.4358C157.855 33.5101 157.708 33.6102 157.584 33.7362C157.46 33.8613 157.362 34.0059 157.292 34.1698C157.221 34.3337 157.186 34.5041 157.186 34.6818C157.186 34.8707 157.221 35.0476 157.294 35.2115C157.367 35.3763 157.464 35.5184 157.588 35.6403C157.711 35.7615 157.856 35.8575 158.02 35.927C158.184 35.9964 158.36 36.032 158.547 36.032C158.664 36.032 158.781 36.0134 158.897 35.9763C159.014 35.9391 159.132 35.8947 159.252 35.8438V34.9838L159.255 34.983Z" fill="white"/>
  <path d="M163.036 33.0075C163.036 32.9792 163.046 32.9542 163.065 32.934C163.085 32.913 163.11 32.9033 163.142 32.9033H163.385C163.414 32.9033 163.441 32.913 163.464 32.9316C163.488 32.951 163.5 32.976 163.5 33.0075V36.3353C163.5 36.4056 163.462 36.4403 163.384 36.4403H163.141C163.07 36.4403 163.035 36.4056 163.035 36.3353V34.8059H161.004V36.3353C161.004 36.4056 160.965 36.4403 160.888 36.4403H160.644C160.573 36.4403 160.538 36.4056 160.538 36.3353V33.0075C160.538 32.9792 160.548 32.9542 160.567 32.934C160.586 32.9138 160.612 32.9033 160.644 32.9033H160.892C160.921 32.9033 160.947 32.9138 160.969 32.934C160.992 32.955 161.002 32.9792 161.002 33.0075V34.344H163.033V33.0075H163.036Z" fill="white"/>
  <path d="M166.739 32.9026C166.768 32.9026 166.794 32.9115 166.818 32.9284C166.841 32.9462 166.854 32.972 166.858 33.0068V33.2474C166.858 33.2789 166.848 33.3064 166.829 33.3298C166.809 33.3532 166.78 33.3645 166.74 33.3645H165.738V36.3306C165.738 36.3588 165.728 36.3847 165.709 36.4065C165.69 36.4291 165.663 36.4396 165.628 36.4396H165.384C165.356 36.4396 165.33 36.4291 165.308 36.4089C165.285 36.3887 165.274 36.362 165.274 36.3306V33.3645H164.267C164.235 33.3645 164.208 33.3548 164.188 33.3362C164.167 33.3169 164.157 33.2878 164.157 33.2482V33.0076C164.157 32.9761 164.168 32.9502 164.188 32.9317C164.208 32.9123 164.235 32.9034 164.267 32.9034H166.742L166.739 32.9026Z" fill="white"/>
  <path d="M167.989 36.3354C167.989 36.4057 167.954 36.4404 167.883 36.4404H167.635C167.561 36.4404 167.524 36.4057 167.524 36.3354V36.0899C167.524 36.0585 167.534 36.0326 167.554 36.014C167.575 35.9947 167.6 35.9858 167.63 35.9858H167.878C167.913 35.9858 167.941 35.9955 167.96 36.0157C167.98 36.0358 167.989 36.0609 167.989 36.0908V36.3362L167.989 36.3354ZM167.548 32.8025C167.548 32.7322 167.585 32.6975 167.659 32.6975H167.903C167.935 32.6975 167.962 32.7064 167.982 32.725C168.003 32.7435 168.013 32.7686 168.013 32.8025V35.3704C168.013 35.4407 167.976 35.4754 167.902 35.4754H167.659C167.63 35.4754 167.604 35.4665 167.582 35.4488C167.559 35.431 167.548 35.4052 167.548 35.3704V32.8025Z" fill="white"/>
</svg>