<svg xmlns="http://www.w3.org/2000/svg" width="80" height="43" viewBox="0 0 80 43" fill="none">
    <path d="M15.2251 21.2727V21.7727H15.2329C15.3902 30.0628 19.449 37.3987 25.6554 42.0455H3.5861C1.8802 42.0455 0.5 40.6682 0.5 38.9754V31.7338C0.5 30.4201 1.34263 29.255 2.59814 28.8278L2.59853 28.8276C5.74945 27.7525 8.01815 24.7786 8.01815 21.2727C8.01815 17.7669 5.74945 14.7929 2.59853 13.7178L2.59814 13.7177C1.34263 13.2905 0.5 12.1254 0.5 10.8116V3.57006C0.5 1.87725 1.8802 0.5 3.5861 0.5H25.6521C19.3239 5.23789 15.2251 12.7784 15.2251 21.2727Z" stroke="#E1E1E1" stroke-miterlimit="10"/>
    <path d="M77.2845 13.7177L77.2841 13.7178C74.1332 14.7929 71.8645 17.7669 71.8645 21.2727C71.8645 24.7786 74.1332 27.7525 77.2841 28.8276L77.2845 28.8278C78.54 29.255 79.3826 30.4201 79.3826 31.7338V38.9754C79.3826 40.6682 78.0024 42.0455 76.2965 42.0455H54.5209C60.8491 37.3076 64.9479 29.7671 64.9479 21.2727C64.9479 12.7781 60.8515 5.24004 54.5207 0.5H76.2965C78.0024 0.5 79.3826 1.87724 79.3826 3.57006V10.8116C79.3826 12.1254 78.54 13.2905 77.2845 13.7177Z" stroke="#E1E1E1" stroke-miterlimit="10"/>
    <path d="M40.0865 42.5455C51.8879 42.5455 61.4548 33.0214 61.4548 21.2727C61.4548 9.52413 51.8879 0 40.0865 0C28.2851 0 18.7181 9.52413 18.7181 21.2727C18.7181 33.0214 28.2851 42.5455 40.0865 42.5455Z" fill="white"/>
    <path d="M40.1328 16.4391C40.732 16.4391 41.3313 16.4329 41.9305 16.4391C42.4401 16.4421 42.8448 16.7835 42.8787 17.2847C42.9591 18.5208 43.0177 19.76 43.0826 20.9993C43.0826 21.0208 43.0764 21.0423 43.0672 21.0915C42.9869 21.0915 42.9035 21.0915 42.8201 21.0915C41.8687 21.0915 40.9204 21.0915 39.9691 21.0915C38.6255 21.0946 37.6525 21.9956 37.5567 23.3332C37.3745 25.8608 37.1953 28.3884 37.01 30.9161C36.9513 31.7217 37.1027 32.472 37.5722 33.1762C37.4703 33.1823 37.3992 33.1885 37.3282 33.1885C34.9158 33.1885 32.5004 33.1885 30.088 33.1885C29.0996 33.1885 28.4046 32.6442 28.1637 31.691C28.1575 31.6602 28.139 31.6356 28.1235 31.608C28.1235 31.3589 28.1235 31.1129 28.1235 30.8638C28.139 30.7439 28.1606 30.6209 28.1668 30.501C28.2224 29.5262 28.2718 28.5514 28.3274 27.5767C28.4448 25.458 28.5652 23.3393 28.6857 21.2207C28.7598 19.9138 28.8309 18.6069 28.9112 17.3001C28.9421 16.7958 29.3313 16.4452 29.8378 16.4391C30.5297 16.4329 31.2216 16.4391 31.9135 16.4391L31.9042 16.4329C31.9042 16.9034 31.895 17.3769 31.9011 17.8474C31.9042 18.1487 32.0587 18.3609 32.3367 18.4747C32.8031 18.6684 33.2849 18.3302 33.3004 17.7982C33.3127 17.3431 33.3096 16.888 33.3158 16.4298L33.3096 16.436C35.1197 16.436 36.9266 16.436 38.7367 16.436L38.7305 16.4298C38.7305 16.9003 38.7212 17.3739 38.7274 17.8443C38.7305 18.1457 38.8849 18.3578 39.1629 18.4716C39.6293 18.6653 40.1112 18.3271 40.1266 17.7951C40.139 17.34 40.1359 16.8849 40.1421 16.4268L40.1359 16.4329L40.1328 16.4391Z" fill="#A13355"/>
    <path d="M31.9166 16.439C31.9259 15.2397 31.8456 14.0282 31.9691 12.8412C32.1575 11.0485 33.634 9.65863 35.4286 9.4034C35.4718 9.39725 35.5151 9.37573 35.5583 9.36035C35.8548 9.36035 36.1513 9.36035 36.4448 9.36035C36.627 9.40033 36.8062 9.43415 36.9884 9.48028C38.8386 9.93845 40.1081 11.5467 40.1266 13.4624C40.1359 14.4525 40.1328 15.4457 40.1359 16.4359L40.1421 16.4297C39.6726 16.4297 39.2031 16.4297 38.7336 16.4297L38.7398 16.4359C38.7367 15.621 38.7336 14.8092 38.7243 13.9944C38.7243 13.693 38.7243 13.3886 38.6873 13.0903C38.5266 11.7158 37.2788 10.6949 35.8579 10.7595C34.4988 10.821 33.3405 11.9679 33.3096 13.3209C33.2849 14.3603 33.3096 15.3996 33.3096 16.4359L33.3158 16.4297C32.8463 16.4297 32.3768 16.4297 31.9073 16.4297L31.9166 16.4359V16.439Z" fill="#A13355"/>
    <path d="M45.2509 22.4844C46.9714 22.4844 48.695 22.4844 50.4154 22.4844C51.1042 22.4844 51.4502 22.8072 51.4965 23.4868C51.6757 26.0083 51.8548 28.5298 52.0401 31.0482C52.1328 32.3028 51.3204 33.1853 50.054 33.1853C46.8293 33.1853 43.6046 33.1853 40.3799 33.1853C39.1598 33.1853 38.3413 32.3643 38.4062 31.1558C38.4834 29.7229 38.6008 28.293 38.7027 26.8632C38.7861 25.71 38.8664 24.56 38.9529 23.4069C38.9992 22.8165 39.3637 22.4844 39.966 22.4844C41.7266 22.4844 43.4872 22.4844 45.2479 22.4844H45.2509ZM42.4247 25.7869C42.4247 25.9253 42.4216 26.0667 42.4247 26.2051C42.4648 27.4382 43.3575 28.499 44.5652 28.7543C45.7729 29.0126 47.0146 28.4006 47.5583 27.2875C47.895 26.6018 47.8672 25.8699 47.8054 25.1442C47.7745 24.7814 47.4162 24.5477 47.0672 24.5784C46.7089 24.6123 46.4432 24.8952 46.434 25.2642C46.4278 25.5594 46.4401 25.8546 46.4278 26.1467C46.3938 26.8755 45.8193 27.4197 45.1058 27.4105C44.3984 27.4013 43.8363 26.8324 43.8239 26.1067C43.8177 25.8269 43.827 25.5471 43.8239 25.2703C43.8147 24.8736 43.5089 24.5754 43.1258 24.5754C42.7459 24.5754 42.4401 24.8767 42.4247 25.2734C42.4185 25.4425 42.4247 25.6147 42.4247 25.7838V25.7869Z" fill="#A13355"/>
</svg>